<svg width="141" height="63" viewBox="0 0 141 63" fill="none" xmlns="http://www.w3.org/2000/svg">
<g clip-path="url(#clip0_2_2)">
<path d="M127 1.1H14C6.59938 1.1 0.6 7.09938 0.6 14.5V48.5C0.6 55.9006 6.59938 61.9 14 61.9H127C134.401 61.9 140.4 55.9006 140.4 48.5V14.5C140.4 7.09938 134.401 1.1 127 1.1Z" stroke="#E5E5E5" stroke-width="1.2"/>
<path d="M84.44 18.768H86.15C86.0697 18.13 85.8616 17.5147 85.538 16.959C85.2378 16.4526 84.8402 16.0107 84.368 15.659C83.8851 15.3035 83.3436 15.0354 82.768 14.867C82.1486 14.6842 81.5058 14.5933 80.86 14.597C79.9587 14.5799 79.0646 14.7612 78.241 15.128C77.5048 15.4624 76.8528 15.9575 76.333 16.577C75.8103 17.2105 75.4154 17.9392 75.17 18.723C74.9 19.5758 74.765 20.4655 74.77 21.36C74.7634 22.2494 74.8877 23.1349 75.139 23.988C75.3645 24.7628 75.7422 25.4849 76.25 26.112C76.7502 26.7186 77.3832 27.2021 78.1 27.525C78.9227 27.8828 79.8132 28.0578 80.71 28.038C82.1339 28.1177 83.5317 27.6326 84.6 26.688C85.6004 25.6744 86.1958 24.33 86.274 22.908H84.564C84.533 23.4138 84.4237 23.9117 84.24 24.384C84.0712 24.8224 83.8173 25.2231 83.493 25.563C83.1716 25.8954 82.7857 26.1588 82.359 26.337C81.8829 26.5301 81.3727 26.625 80.859 26.616C80.1738 26.6346 79.4943 26.4863 78.879 26.184C78.3412 25.9086 77.8754 25.5109 77.519 25.023C77.1516 24.508 76.8859 23.9276 76.736 23.313C76.5649 22.6334 76.4802 21.9348 76.484 21.234C76.482 20.5777 76.5667 19.9241 76.736 19.29C76.892 18.6914 77.1575 18.1269 77.519 17.625C77.8732 17.1388 78.3353 16.7414 78.869 16.464C79.4808 16.161 80.1576 16.0127 80.84 16.032C81.6694 16.011 82.4845 16.2502 83.171 16.716C83.8472 17.2067 84.3031 17.9438 84.44 18.768ZM96.392 27.714C96.0524 27.8876 95.6729 27.9683 95.292 27.948C94.9455 27.9658 94.6059 27.8462 94.347 27.615C94.2183 27.4665 94.1212 27.2934 94.0615 27.1062C94.0019 26.919 93.981 26.7216 94 26.526C93.6104 27.0074 93.1049 27.3821 92.531 27.615C91.9549 27.8411 91.3409 27.9548 90.722 27.95C90.3176 27.9523 89.9145 27.9039 89.522 27.806C89.1688 27.7215 88.8355 27.5686 88.541 27.356C88.2604 27.1465 88.0349 26.872 87.884 26.556C87.7122 26.1799 87.6291 25.7693 87.641 25.356C87.6228 24.9071 87.7155 24.4606 87.911 24.056C88.0811 23.7314 88.3246 23.451 88.622 23.237C88.9281 23.0213 89.2691 22.8599 89.63 22.76C90.008 22.652 90.395 22.562 90.791 22.49C91.211 22.406 91.611 22.343 91.991 22.301C92.3285 22.2665 92.6628 22.2063 92.991 22.121C93.2425 22.0616 93.4766 21.9445 93.675 21.779C93.7623 21.6944 93.8301 21.5918 93.8736 21.4783C93.9171 21.3649 93.9354 21.2433 93.927 21.122C93.9402 20.8397 93.8748 20.5593 93.738 20.312C93.62 20.1159 93.4524 19.9545 93.252 19.844C93.0447 19.7329 92.8191 19.6598 92.586 19.628C92.3447 19.5923 92.101 19.5743 91.857 19.574C91.2941 19.5539 90.7357 19.6811 90.237 19.943C90.0086 20.094 89.8237 20.3023 89.7009 20.5471C89.578 20.7919 89.5215 21.0646 89.537 21.338H88C88.0064 20.8308 88.1296 20.3319 88.36 19.88C88.5667 19.4944 88.863 19.1641 89.224 18.917C89.5984 18.6648 90.0166 18.4847 90.457 18.386C90.9442 18.2752 91.4425 18.2209 91.942 18.224C92.3606 18.2239 92.7787 18.254 93.193 18.314C93.5874 18.3675 93.9686 18.4926 94.318 18.683C94.6526 18.8676 94.9322 19.1379 95.128 19.466C95.3482 19.8678 95.4541 20.3223 95.434 20.78V25.568C95.4256 25.8335 95.4467 26.0992 95.497 26.36C95.539 26.528 95.68 26.612 95.92 26.612C96.0798 26.6069 96.2378 26.5765 96.388 26.522L96.392 27.714ZM93.908 22.944C93.6819 23.1027 93.4239 23.2102 93.152 23.259C92.84 23.3257 92.513 23.3797 92.171 23.421C91.829 23.4623 91.484 23.5103 91.136 23.565C90.8142 23.6117 90.4996 23.6994 90.2 23.826C89.9353 23.9373 89.7031 24.1137 89.525 24.339C89.338 24.6039 89.246 24.9242 89.264 25.248C89.2568 25.4709 89.3097 25.6916 89.417 25.887C89.516 26.057 89.6529 26.2017 89.817 26.31C89.9899 26.4225 90.1821 26.5019 90.384 26.544C90.6087 26.5929 90.8381 26.6171 91.068 26.616C91.5104 26.6269 91.951 26.5568 92.368 26.409C92.6924 26.2923 92.9917 26.1152 93.25 25.887C93.4623 25.6961 93.6326 25.4632 93.75 25.203C93.8515 24.9857 93.9066 24.7497 93.912 24.51L93.908 22.944ZM99.938 18.444V15.65H98.408V18.44H96.824V19.79H98.408V25.712C98.3974 26.0657 98.4398 26.4189 98.534 26.76C98.6009 26.9973 98.7353 27.2099 98.921 27.372C99.1199 27.5283 99.3553 27.6315 99.605 27.672C99.9409 27.7295 100.281 27.7556 100.622 27.75H101.792V26.4H101.092C100.897 26.4022 100.701 26.3932 100.507 26.373C100.382 26.3637 100.262 26.3235 100.156 26.256C100.071 26.1947 100.011 26.1055 99.985 26.004C99.9513 25.8626 99.9362 25.7173 99.94 25.572V19.794H101.794V18.444H99.938ZM105.608 18.444V15.65H104.078V18.44H102.494V19.79H104.078V25.712C104.066 26.0655 104.107 26.4187 104.2 26.76C104.267 26.9973 104.401 27.2099 104.587 27.372C104.786 27.5283 105.021 27.6315 105.271 27.672C105.608 27.7297 105.95 27.7558 106.292 27.75H107.462V26.4H106.762C106.567 26.4022 106.371 26.3932 106.177 26.373C106.052 26.3637 105.932 26.3235 105.826 26.256C105.741 26.1947 105.681 26.1055 105.655 26.004C105.621 25.8626 105.606 25.7173 105.61 25.572V19.794H107.464V18.444H105.608ZM112.808 28.992C112.656 29.3871 112.479 29.772 112.277 30.144C112.125 30.4269 111.931 30.6848 111.701 30.909C111.501 31.101 111.262 31.2483 111.001 31.341C110.714 31.4356 110.412 31.4812 110.11 31.476C109.929 31.476 109.749 31.4639 109.57 31.44C109.392 31.4165 109.217 31.3743 109.048 31.314V29.91C109.196 29.9753 109.35 30.0266 109.507 30.063C109.651 30.1009 109.799 30.122 109.948 30.126C110.226 30.1359 110.5 30.0571 110.731 29.901C110.95 29.7397 111.116 29.5174 111.208 29.262L111.838 27.696L108.148 18.444H109.876L112.594 26.058H112.63L115.24 18.444H116.86L112.808 28.992Z" fill="white"/>
<path d="M75.314 35.148H77.564V40.26H83.414V35.148H85.664V48H83.414V42.2H77.564V48H75.314V35.148ZM92.342 48.252C91.661 48.2639 90.9845 48.1384 90.353 47.883C89.7942 47.653 89.291 47.3063 88.877 46.866C88.4665 46.4196 88.1538 45.8924 87.959 45.318C87.743 44.6805 87.6364 44.0111 87.644 43.338C87.6373 42.6709 87.7439 42.0075 87.959 41.376C88.1538 40.8017 88.4665 40.2744 88.877 39.828C89.291 39.3877 89.7942 39.041 90.353 38.811C90.9845 38.5556 91.661 38.4301 92.342 38.442C93.0231 38.4301 93.6996 38.5556 94.331 38.811C94.8898 39.041 95.3931 39.3877 95.807 39.828C96.2176 40.2744 96.5303 40.8017 96.725 41.376C96.9402 42.0075 97.0467 42.6709 97.04 43.338C97.0476 44.0111 96.9411 44.6805 96.725 45.318C96.5303 45.8924 96.2176 46.4196 95.807 46.866C95.3931 47.3063 94.8898 47.653 94.331 47.883C93.6996 48.1384 93.0231 48.2639 92.342 48.252ZM92.342 46.632C92.7565 46.6423 93.1663 46.5429 93.53 46.344C93.8597 46.1579 94.1428 45.8994 94.358 45.588C94.5777 45.2678 94.7392 44.9113 94.835 44.535C94.9374 44.1432 94.9888 43.7399 94.988 43.335C94.9874 42.9341 94.936 42.535 94.835 42.147C94.7409 41.7719 94.5793 41.4171 94.358 41.1C94.1407 40.7928 93.8579 40.5377 93.53 40.353C93.1663 40.1541 92.7565 40.0547 92.342 40.065C91.9276 40.0547 91.5178 40.1541 91.154 40.353C90.8262 40.5377 90.5434 40.7928 90.326 41.1C90.1041 41.419 89.9425 41.7758 89.849 42.153C89.7497 42.5402 89.6996 42.9383 89.7 43.338C89.6992 43.7429 89.7507 44.1462 89.853 44.538C89.9488 44.9143 90.1103 45.2708 90.33 45.591C90.5452 45.9024 90.8283 46.1609 91.158 46.347C91.5209 46.5442 91.9292 46.6425 92.342 46.632ZM97.814 38.694H99.362V35.9H101.414V38.69H103.268V40.22H101.414V45.188C101.413 45.3744 101.422 45.5607 101.441 45.746C101.453 45.887 101.496 46.0235 101.567 46.146C101.638 46.2578 101.743 46.3433 101.867 46.389C102.04 46.4497 102.224 46.4772 102.407 46.47C102.551 46.47 102.695 46.467 102.839 46.461C102.985 46.4547 103.13 46.4336 103.271 46.398V47.982L102.6 48.054C102.379 48.0783 102.157 48.0903 101.934 48.09C101.494 48.1025 101.054 48.051 100.629 47.937C100.336 47.857 100.069 47.7019 99.855 47.487C99.663 47.2773 99.5323 47.0189 99.477 46.74C99.4066 46.4023 99.3675 46.0589 99.36 45.714V40.224H97.814V38.694ZM111.134 42.528C111.111 42.2076 111.041 41.8923 110.927 41.592C110.82 41.3045 110.662 41.039 110.459 40.809C110.257 40.5837 110.012 40.4002 109.739 40.269C109.444 40.1281 109.121 40.0573 108.794 40.062C108.458 40.0574 108.124 40.1217 107.813 40.251C107.528 40.371 107.27 40.5487 107.057 40.773C106.844 41.0016 106.675 41.2669 106.557 41.556C106.429 41.8646 106.359 42.1941 106.35 42.528H111.134ZM106.346 43.878C106.345 44.2317 106.397 44.5835 106.5 44.922C106.594 45.243 106.75 45.5426 106.959 45.804C107.169 46.0593 107.433 46.2643 107.733 46.404C108.083 46.562 108.465 46.6389 108.849 46.629C109.361 46.6549 109.868 46.5207 110.3 46.245C110.689 45.9547 110.976 45.5481 111.119 45.084H113.06C112.961 45.5654 112.772 46.0235 112.502 46.434C112.246 46.8217 111.923 47.1604 111.548 47.434C111.17 47.7069 110.748 47.9135 110.3 48.045C109.83 48.1842 109.342 48.2539 108.851 48.252C108.183 48.2655 107.519 48.143 106.9 47.892C106.355 47.6652 105.866 47.3211 105.469 46.884C105.07 46.4356 104.769 45.9082 104.587 45.336C104.382 44.6963 104.281 44.0278 104.287 43.356C104.284 42.7156 104.39 42.0794 104.602 41.475C104.801 40.9009 105.106 40.3696 105.502 39.909C105.894 39.4577 106.375 39.093 106.915 38.838C107.501 38.5652 108.141 38.4285 108.787 38.438C109.472 38.4268 110.149 38.5845 110.758 38.897C111.325 39.1902 111.82 39.6051 112.207 40.112C112.598 40.6301 112.882 41.2205 113.044 41.849C113.218 42.5091 113.264 43.1966 113.179 43.874L106.346 43.878ZM114.806 35.148H116.858V48H114.806V35.148ZM120.638 45.012C120.642 45.2616 120.706 45.5067 120.825 45.7261C120.944 45.9455 121.115 46.1328 121.322 46.272C121.754 46.5213 122.246 46.6459 122.744 46.632C122.964 46.6302 123.183 46.6151 123.401 46.587C123.638 46.5592 123.871 46.5017 124.094 46.416C124.299 46.3397 124.482 46.2128 124.625 46.047C124.769 45.8667 124.837 45.6375 124.814 45.408C124.812 45.2862 124.786 45.166 124.736 45.0547C124.687 44.9433 124.615 44.8431 124.526 44.76C124.324 44.5814 124.089 44.4453 123.833 44.36C123.519 44.2492 123.197 44.162 122.87 44.099C122.51 44.027 122.143 43.949 121.77 43.865C121.396 43.7837 121.026 43.6815 120.663 43.559C120.322 43.4459 120.001 43.282 119.709 43.073C119.426 42.868 119.195 42.5999 119.034 42.29C118.855 41.9234 118.769 41.5187 118.782 41.111C118.766 40.6595 118.896 40.2148 119.151 39.842C119.397 39.4997 119.717 39.2168 120.087 39.014C120.48 38.7988 120.906 38.6498 121.347 38.573C121.783 38.4914 122.226 38.4492 122.67 38.447C123.133 38.4451 123.595 38.4965 124.047 38.6C124.469 38.6952 124.871 38.8626 125.235 39.095C125.59 39.3243 125.891 39.6284 126.117 39.986C126.363 40.3847 126.514 40.8341 126.56 41.3H124.418C124.395 41.0924 124.322 40.8935 124.204 40.7209C124.086 40.5483 123.928 40.4072 123.743 40.31C123.362 40.1362 122.947 40.0501 122.528 40.058C122.356 40.0599 122.185 40.0719 122.015 40.094C121.824 40.1162 121.637 40.1616 121.457 40.229C121.29 40.2904 121.139 40.3888 121.016 40.517C120.955 40.5836 120.908 40.6617 120.877 40.7466C120.846 40.8315 120.832 40.9217 120.836 41.012C120.832 41.1269 120.853 41.2413 120.898 41.3471C120.943 41.4529 121.011 41.5474 121.097 41.624C121.298 41.7956 121.53 41.927 121.781 42.011C122.095 42.1218 122.417 42.209 122.744 42.272C123.104 42.344 123.476 42.422 123.86 42.506C124.232 42.59 124.599 42.692 124.96 42.812C125.304 42.9239 125.629 43.0878 125.923 43.298C126.205 43.5024 126.439 43.7667 126.607 44.072C126.791 44.4273 126.881 44.824 126.868 45.224C126.883 45.7178 126.752 46.2049 126.49 46.624C126.239 47.007 125.903 47.3273 125.509 47.56C125.093 47.8084 124.639 47.9874 124.166 48.09C123.687 48.1965 123.198 48.2509 122.708 48.252C122.159 48.2561 121.611 48.1889 121.079 48.052C120.612 47.9362 120.17 47.7326 119.779 47.452C119.417 47.187 119.122 46.842 118.915 46.444C118.695 45.9992 118.581 45.5093 118.582 45.013L120.638 45.012Z" fill="white"/>
<path d="M50 0.5H14C6.26801 0.5 0 6.76801 0 14.5V48.5C0 56.232 6.26801 62.5 14 62.5H50C57.732 62.5 64 56.232 64 48.5V14.5C64 6.76801 57.732 0.5 50 0.5Z" fill="#F7F7F7"/>
<path d="M50 1.1H14C6.59938 1.1 0.6 7.09938 0.6 14.5V48.5C0.6 55.9006 6.59938 61.9 14 61.9H50C57.4006 61.9 63.4 55.9006 63.4 48.5V14.5C63.4 7.09938 57.4006 1.1 50 1.1Z" stroke="#E5E5E5" stroke-width="1.2"/>
<path fill-rule="evenodd" clip-rule="evenodd" d="M22.544 10.596C22.013 10.837 21.821 11.296 21.731 12.526C21.6747 14.8941 21.8681 17.2615 22.308 19.589C22.6003 20.9585 22.6886 22.3637 22.57 23.759C22.5312 24.9335 22.7379 26.1032 23.1768 27.1933C23.6157 28.2834 24.2772 29.27 25.119 30.09C25.427 30.404 25.472 30.477 25.439 30.617C25.418 30.706 25.254 31.309 25.074 31.956C24.894 32.603 24.494 34.15 24.185 35.394C23.876 36.638 23.31 38.864 22.928 40.34C21.871 44.424 21.388 46.44 21.251 47.34C21.057 48.612 21.051 48.621 20.451 48.34C20.0043 48.1299 19.6161 47.8131 19.3207 47.4176C19.0253 47.0221 18.8317 46.56 18.757 46.072C18.705 45.656 18.747 45.606 19.343 45.381C20.212 45.052 20.571 44.609 20.561 43.881C20.5387 43.5503 20.4318 43.2309 20.2506 42.9533C20.0694 42.6757 19.82 42.4493 19.5262 42.2958C19.2325 42.1422 18.9042 42.0667 18.5729 42.0763C18.2416 42.086 17.9183 42.1806 17.634 42.351C13.501 44.309 14.434 50.487 19.088 52.003C20.411 52.434 22.345 52.176 22.345 51.569C22.345 51.422 22.354 51.422 22.664 51.582C23.253 51.882 23.327 51.891 27.364 51.918L31.147 51.943L31.559 52.355C32.159 52.955 32.946 53.106 34.348 52.879C34.6163 52.8179 34.8953 52.8213 35.162 52.889C35.6271 53.0142 36.1155 53.0251 36.5857 52.9206C37.0558 52.8161 37.4937 52.5994 37.862 52.289L38.207 51.937H42.024C46.547 51.937 46.724 51.917 47.259 51.376C47.9894 50.2489 48.254 48.8823 47.997 47.564C47.958 47.431 47.843 46.848 47.74 46.264C47.637 45.68 47.446 44.734 47.314 44.153C46.757 41.703 46.376 40.115 46.019 38.753C45.811 37.953 45.336 36.138 44.965 34.712C44.594 33.286 44.185 31.727 44.056 31.249L43.821 30.38L44.167 29.99C46.167 27.734 46.914 25.646 46.618 23.112C46.5121 22.266 46.5212 21.4096 46.645 20.566C46.712 20.299 47.035 18.06 47.238 16.466C47.379 14.8631 47.3874 13.2513 47.263 11.647C46.87 9.874 44.986 10.182 40.327 12.782L39.338 13.334L38.397 13.241C36.882 13.0886 35.3594 13.0258 33.837 13.053C32.667 13.091 29.943 13.253 29.748 13.295C29.3758 13.1534 29.0214 12.9688 28.692 12.745C25.952 11.086 23.43 10.209 22.55 10.609M24.608 11.937C24.973 12.074 25.708 12.4 26.237 12.663C27.1272 13.1041 27.9919 13.5948 28.827 14.133C29.256 14.398 29.391 14.406 30.975 14.252C33.2941 14.1082 35.6199 14.1082 37.939 14.252L39.339 14.391L39.712 14.428L40.599 13.928C42.68 12.758 45.379 11.608 45.76 11.728C46.341 11.912 46.329 14.15 45.725 18.328C45.3832 19.8817 45.252 21.4743 45.335 23.063C45.5729 24.4243 45.3345 25.8259 44.66 27.032C43.524 29.307 42.509 30.111 39.86 30.839C36.8425 31.6491 33.6787 31.7518 30.615 31.139C27.97 30.665 26.226 29.772 25.325 28.432C23.958 26.398 23.795 25.818 23.803 23.011C23.8551 22.112 23.8156 21.21 23.685 20.319L23.385 18.626C23.0646 17.0391 22.9114 15.4229 22.928 13.804C22.928 11.422 23.009 11.328 24.615 11.93M44.663 12.537C43.4326 13.6376 42.413 14.953 41.654 16.419C41.383 17.189 41.493 17.429 42.332 17.907C43.303 18.46 43.306 18.461 43.5 18.387C44.079 18.167 43.68 17.249 42.847 16.881C42.7428 16.8446 42.6458 16.7904 42.56 16.721C43.1838 15.6074 43.9181 14.5594 44.752 13.593C45.43 12.75 45.486 12.648 45.382 12.431C45.262 12.181 45.105 12.203 44.663 12.537ZM23.68 12.367C23.525 12.522 23.603 12.751 23.945 13.144C24.8105 14.1812 25.612 15.2702 26.345 16.405L26.506 16.685L26.243 16.839C25.47 17.292 25.143 18.077 25.628 18.309C25.87 18.424 25.804 18.45 26.804 17.856C27.911 17.199 27.897 16.825 26.704 15.156C25.218 13.081 24.051 12.005 23.684 12.371M29.071 19.803C28.8426 19.9133 28.6392 20.0693 28.4735 20.2614C28.3078 20.4535 28.1833 20.6775 28.1077 20.9196C28.032 21.1617 28.0069 21.4168 28.0338 21.669C28.0606 21.9212 28.139 22.1653 28.264 22.386C28.4083 22.6852 28.6372 22.9356 28.9223 23.1062C29.2074 23.2768 29.5362 23.3601 29.8681 23.3458C30.2 23.3316 30.5205 23.2204 30.7899 23.026C31.0593 22.8316 31.2658 22.5625 31.384 22.252C31.5196 21.9231 31.5574 21.5619 31.4926 21.212C31.4279 20.8622 31.2635 20.5384 31.0192 20.2797C30.7749 20.0211 30.4611 19.8385 30.1155 19.7539C29.7698 19.6693 29.4072 19.6864 29.071 19.803ZM38.971 19.752C38.7199 19.8404 38.4905 19.981 38.2977 20.1645C38.105 20.3481 37.9533 20.5704 37.8527 20.8168C37.752 21.0632 37.7048 21.3281 37.714 21.5941C37.7232 21.8601 37.7886 22.1211 37.906 22.36C38.062 22.6921 38.3209 22.965 38.6442 23.1384C38.9675 23.3118 39.3381 23.3764 39.701 23.3227C40.064 23.2689 40.3999 23.0996 40.6591 22.84C40.9183 22.5803 41.0869 22.244 41.14 21.881C41.2192 21.5825 41.2178 21.2683 41.1361 20.9705C41.0544 20.6727 40.8952 20.4018 40.6748 20.1855C40.4545 19.9692 40.1807 19.8151 39.8814 19.7389C39.5821 19.6628 39.268 19.6673 38.971 19.752ZM30.025 20.266C30.0708 20.2982 30.1086 20.3405 30.1356 20.3896C30.1626 20.4386 30.178 20.4932 30.1807 20.5492C30.1834 20.6051 30.1733 20.6609 30.1512 20.7124C30.129 20.7638 30.0955 20.8095 30.053 20.846C29.9688 20.9311 29.855 20.9804 29.7354 20.9835C29.6158 20.9867 29.4995 20.9435 29.411 20.863C29.011 20.486 29.587 19.922 30.025 20.263M39.756 20.329C40.067 20.621 39.824 21.039 39.391 20.957C39.3306 20.9529 39.2718 20.9364 39.218 20.9086C39.1643 20.8809 39.1168 20.8423 39.0786 20.7955C39.0403 20.7486 39.0121 20.6944 38.9957 20.6361C38.9792 20.5779 38.9749 20.517 38.983 20.457C39.01 20.189 39.517 20.104 39.755 20.328M27.968 24.296C26.702 24.334 26.654 24.353 26.654 24.812C26.654 25.271 26.632 25.267 28.416 25.281C30.2 25.295 30.243 25.281 30.243 24.86C30.243 24.38 30.043 24.232 29.429 24.252L27.968 24.296ZM39.468 24.28C39.247 24.365 39.168 24.5 39.168 24.787C39.168 25.262 39.173 25.264 41.008 25.264C42.808 25.264 42.848 25.254 42.848 24.842C42.8515 24.695 42.7994 24.5522 42.702 24.442L42.556 24.273L41.056 24.261C40.232 24.255 39.517 24.261 39.467 24.284M34.231 24.495C33.909 24.567 33.86 24.682 34.031 24.974C34.494 25.774 33.831 26.405 32.775 26.162C32.154 26.019 32.186 26.733 32.812 26.994C33.353 27.22 34.524 26.822 34.524 26.411C34.524 26.287 34.691 26.365 34.912 26.591C35.644 27.341 37.236 27.136 37.031 26.319L36.994 26.172L36.316 26.211C35.643 26.25 35.637 26.249 35.446 26.088C34.993 25.707 34.881 25.345 35.129 25.064C35.519 24.62 35.039 24.315 34.229 24.495M27.112 26.335C26.607 26.364 26.524 26.453 26.612 26.867C26.7 27.281 26.832 27.317 28.603 27.318C30.203 27.318 30.253 27.306 30.28 26.885C30.309 26.442 30.18 26.356 29.517 26.356C29.224 26.356 28.66 26.346 28.265 26.333C27.87 26.32 27.349 26.322 27.107 26.333M39.252 26.487C39.1914 26.5934 39.159 26.7135 39.158 26.836C39.158 27.315 39.172 27.319 40.715 27.315C41.468 27.315 42.215 27.289 42.382 27.263C42.873 27.182 43.055 26.806 42.751 26.502L42.603 26.354H40.975C39.361 26.354 39.346 26.354 39.253 26.488M42.953 31.858C43.236 32.984 43.939 35.675 44.253 36.819C46.085 43.576 47.067 47.964 46.966 48.934C46.779 50.717 46.442 50.857 42.009 50.991C40.758 51.029 40.82 51.061 41.083 50.504C42.216 48.104 43.537 42.304 43.083 41.72C43.0309 41.6511 42.9623 41.5965 42.8835 41.5612C42.8048 41.5259 42.7183 41.511 42.6323 41.518C42.5462 41.525 42.4633 41.5536 42.3912 41.6011C42.3192 41.6487 42.2603 41.7136 42.22 41.79C42.0294 42.3475 41.9121 42.9273 41.871 43.515C41.763 44.209 41.279 46.349 41.071 47.067C40.962 47.436 40.796 48.009 40.701 48.34C40.4519 49.1767 40.1473 49.9959 39.789 50.792L39.671 50.992L39.052 51.009L38.433 51.026L38.468 50.767C38.487 50.625 38.637 49.138 38.801 47.467C39.323 42.142 39.329 41.967 38.995 41.667C38.481 41.207 38.018 41.688 38.018 42.683C38.018 43.918 37.518 50.507 37.391 50.922C37.3363 51.1866 37.21 51.4312 37.0258 51.629C36.8417 51.8267 36.6068 51.9702 36.3467 52.0436C36.0867 52.1171 35.8114 52.1177 35.551 52.0455C35.2906 51.9733 35.0551 51.8309 34.87 51.634L34.588 51.383L34.288 51.683C33.445 52.526 32.238 52.063 31.9 50.766C31.8148 50.2999 31.7544 49.8295 31.719 49.357C31.435 46.134 31.319 44.714 31.232 43.545C31.094 41.63 30.905 41.229 30.293 41.556C29.893 41.769 29.887 41.566 30.593 48.556C30.726 49.871 30.836 50.964 30.836 50.984C30.5989 51.0205 30.3586 51.0329 30.119 51.021H29.402L29.238 50.614C28.2216 48.0457 27.5036 45.3692 27.098 42.637C26.958 41.587 26.477 41.094 26.07 41.584C25.597 42.154 26.779 47.668 27.938 50.298L28.226 50.955C26.815 51.0418 25.3995 51.0247 23.991 50.904C23.5506 50.9006 23.1268 50.7359 22.7997 50.441C22.4726 50.1462 22.2649 49.7417 22.216 49.304C22.029 48.295 22.232 47.197 23.359 43.112C24.036 40.658 25.04 36.912 25.474 35.217C25.78 34.025 26.547 31.241 26.583 31.19C26.7877 31.2649 26.9881 31.3514 27.183 31.449C31.124 33.291 38.524 33.2 42.294 31.264C42.512 31.152 42.706 31.064 42.725 31.058C42.8253 31.3178 42.9042 31.5854 42.961 31.858M18.961 43.297C19.638 43.726 19.661 44.097 19.025 44.414C17.115 45.382 18.067 48.529 20.503 49.297C20.96 49.441 20.964 49.444 21.035 49.706C21.074 49.851 21.192 50.195 21.296 50.471C21.4 50.747 21.486 50.982 21.486 50.993C21.1855 51.1368 20.8561 51.2097 20.523 51.206C19.5311 51.0982 18.5945 50.6944 17.8351 50.0472C17.0758 49.4 16.5287 48.5393 16.265 47.577C15.683 45.351 17.544 42.398 18.965 43.297" fill="black"/>
<path fill-rule="evenodd" clip-rule="evenodd" d="M25.186 13.183C26.2493 14.2446 27.0805 15.5154 27.627 16.915C27.676 17.327 27.608 17.423 27.061 17.722C26.803 17.863 26.435 18.085 26.243 18.215C25.916 18.436 25.881 18.447 25.685 18.382C25.046 18.171 25.407 17.273 26.354 16.72C26.518 16.62 25.609 15.235 24.463 13.829L24.054 13.329C24.015 13.278 23.615 13.456 23.583 13.539C23.5333 14.3603 23.5429 15.1841 23.612 16.004C23.702 17.182 23.812 20.934 23.817 23.182C23.828 26.314 23.984 26.654 25.779 27.46C26.2542 27.6859 26.7083 27.9536 27.136 28.26C28.5965 29.2976 30.2531 30.0268 32.0047 30.403C33.7563 30.7792 35.5663 30.7945 37.324 30.448C39.161 30.0674 40.8801 29.2519 42.337 28.07C43.0075 27.5867 43.7432 27.2008 44.522 26.924C45.066 26.682 45.444 25.109 45.322 23.576C45.287 23.128 45.259 21.418 45.259 19.776C45.259 18.134 45.241 15.96 45.219 14.946L45.179 13.101L44.785 13.588C43.961 14.5461 43.2309 15.5812 42.605 16.679C42.605 16.72 42.734 16.811 42.891 16.879C43.604 17.194 44.014 17.948 43.663 18.299C43.463 18.499 43.236 18.488 42.903 18.278C42.755 18.185 42.423 17.993 42.165 17.85C41.591 17.534 41.485 17.389 41.499 16.941C41.8235 15.7924 42.4354 14.7454 43.277 13.899C43.916 13.14 44.067 12.943 43.897 13.09C43.4856 13.2077 43.0494 13.2077 42.638 13.09C42.471 13.059 42.362 13.061 42.362 13.09C42.362 13.119 42.339 13.132 42.311 13.115C41.7452 13.3014 41.207 13.5631 40.711 13.893C39.652 14.501 39.711 14.486 38.881 14.379C35.8567 14.0798 32.8103 14.0798 29.786 14.379C29.286 14.425 29.11 14.363 28.312 13.851C27.475 13.314 27.246 13.196 27.035 13.196C26.925 13.196 26.563 13.153 26.235 13.096C25.907 13.039 25.485 12.991 25.305 12.978L24.979 12.955L25.191 13.179M30.422 19.793C30.7636 19.9402 31.054 20.1852 31.2564 20.4973C31.4588 20.8094 31.5642 21.1744 31.5593 21.5464C31.5543 21.9183 31.4393 22.2804 31.2287 22.587C31.0181 22.8936 30.7214 23.1309 30.376 23.269C28.676 23.91 27.224 21.611 28.448 20.221C28.674 19.9286 28.9959 19.7254 29.357 19.6471C29.7181 19.5688 30.0952 19.6205 30.422 19.793ZM40.17 19.793C40.4851 19.9191 40.7546 20.1378 40.9428 20.4202C41.131 20.7027 41.229 21.0356 41.224 21.375C41.23 23.435 38.705 24.157 37.871 22.333C37.7004 22.0019 37.6348 21.6267 37.6831 21.2574C37.7314 20.8881 37.8912 20.5424 38.1412 20.2663C38.3911 19.9902 38.7194 19.797 39.0821 19.7124C39.4448 19.6279 39.8237 19.656 40.17 19.793ZM29.408 20.348C29.265 20.53 29.258 20.573 29.347 20.739C29.3916 20.8048 29.4527 20.8579 29.5241 20.8929C29.5956 20.9279 29.6749 20.9437 29.7543 20.9387C29.8337 20.9336 29.9104 20.9079 29.9768 20.8641C30.0432 20.8203 30.0971 20.76 30.133 20.689C30.297 20.257 29.701 19.976 29.408 20.348ZM39.129 20.284C39.0899 20.3134 39.0579 20.3513 39.0355 20.3949C39.0131 20.4384 39.0008 20.4864 38.9996 20.5354C38.9983 20.5843 39.0081 20.6329 39.0283 20.6775C39.0485 20.7221 39.0784 20.7616 39.116 20.793C39.326 21.003 39.9 20.914 39.9 20.671C39.8924 20.5849 39.8629 20.5022 39.8143 20.4307C39.7657 20.3592 39.6997 20.3013 39.6224 20.2625C39.5452 20.2237 39.4593 20.2054 39.3729 20.2091C39.2866 20.2129 39.2026 20.2387 39.129 20.284ZM30.129 24.384C30.2185 24.4962 30.2709 24.6336 30.2788 24.777C30.2867 24.9203 30.2497 25.0626 30.173 25.184C29.0417 25.3689 27.8884 25.3757 26.755 25.204C26.6796 25.0909 26.6367 24.9593 26.631 24.8235C26.6254 24.6877 26.6572 24.5529 26.723 24.434C26.839 24.269 26.939 24.259 28.623 24.246L29.985 24.236L30.125 24.385M42.616 24.298C42.7523 24.3865 42.8482 24.5252 42.8828 24.684C42.9175 24.8427 42.888 25.0088 42.801 25.146L42.688 25.286H41.016H39.345L39.229 25.144C39.1471 25.0317 39.1056 24.8948 39.1114 24.7559C39.1172 24.617 39.17 24.4841 39.261 24.379L39.409 24.231H40.954C41.5084 24.21 42.0637 24.2307 42.615 24.293M35.154 24.537C35.354 24.695 35.354 24.837 35.154 25.072C34.969 25.291 34.988 25.453 35.24 25.809C35.524 26.209 35.819 26.287 36.561 26.15C36.999 26.069 37.061 26.104 37.061 26.433C37.061 27.2 35.687 27.333 34.929 26.64L34.617 26.355L34.417 26.598C33.798 27.335 32.361 27.223 32.364 26.438C32.364 26.038 32.409 26.008 32.864 26.131C33.815 26.389 34.464 25.747 34.02 24.989C33.9453 24.8846 33.9054 24.7594 33.906 24.631C33.995 24.399 34.898 24.331 35.159 24.537M30.091 26.349C30.1585 26.3904 30.2169 26.4451 30.2625 26.5099C30.3082 26.5746 30.3401 26.6479 30.3565 26.7254C30.3729 26.8029 30.3733 26.8829 30.3577 26.9605C30.3422 27.0382 30.311 27.1118 30.266 27.177C29.1057 27.3861 27.9179 27.3908 26.756 27.191C26.531 26.966 26.519 26.382 26.738 26.325C27.8552 26.2691 28.9747 26.2764 30.091 26.349ZM42.673 26.371C42.7374 26.4074 42.793 26.4576 42.8357 26.518C42.8784 26.5785 42.9072 26.6476 42.9199 26.7205C42.9326 26.7934 42.929 26.8682 42.9093 26.9396C42.8896 27.0109 42.8543 27.077 42.806 27.133C41.645 27.4136 40.4375 27.4436 39.264 27.221C39.2112 27.0994 39.1832 26.9685 39.1815 26.836C39.1798 26.7035 39.2044 26.5719 39.254 26.449C40.3831 26.2495 41.5361 26.2226 42.673 26.371ZM25.064 30.135C25.064 30.169 25.145 30.254 25.245 30.325C25.299 30.3709 25.3602 30.4077 25.426 30.434C25.3719 30.365 25.3113 30.3013 25.245 30.244C25.145 30.15 25.064 30.101 25.064 30.135ZM41.833 32.235C38.062 33.964 31.173 34.017 27.394 32.345C26.974 32.159 27.012 32.155 26.964 32.39C26.672 33.802 26.183 35.679 25.464 38.166C25.209 39.045 24.77 40.62 24.489 41.666C24.208 42.712 23.776 44.266 23.528 45.116C23.039 46.802 23.038 46.806 23.165 46.916C24.0839 47.1595 25.0278 47.2961 25.978 47.323L26.918 47.359L26.627 46.189C25.752 42.67 25.707 41.43 26.455 41.43C26.818 41.43 26.987 41.665 27.092 42.312C27.3212 43.8489 27.6353 45.3719 28.033 46.874L28.166 47.341H29.301C30.342 47.341 30.436 47.332 30.436 47.235C30.436 47.177 30.356 46.342 30.257 45.38C29.899 41.88 29.938 41.429 30.6 41.429C31.037 41.429 31.138 41.751 31.281 43.584C31.347 44.439 31.468 45.898 31.548 46.827C31.628 47.756 31.725 48.886 31.762 49.338C31.875 50.697 32.001 51.146 32.406 51.618C32.5246 51.7612 32.6736 51.8761 32.8423 51.9543C33.0109 52.0325 33.1949 52.0721 33.3808 52.0702C33.5666 52.0683 33.7498 52.0249 33.9168 51.9432C34.0837 51.8615 34.2304 51.7436 34.346 51.598L34.607 51.314L34.894 51.583C35.079 51.7889 35.3193 51.9374 35.5862 52.0106C35.8532 52.0838 36.1356 52.0788 36.3997 51.9961C36.6639 51.9134 36.8987 51.7565 37.0763 51.544C37.2538 51.3316 37.3665 51.0727 37.401 50.798C37.45 50.605 37.559 49.511 37.643 48.366C37.727 47.221 37.823 45.959 37.854 45.566C37.885 45.173 37.939 44.21 37.973 43.438C38.048 41.731 38.135 41.495 38.687 41.495C39.349 41.495 39.417 42.316 39.032 45.627C38.986 46.027 38.932 46.588 38.905 46.879L38.863 47.407H39.898C40.914 47.407 40.934 47.407 40.991 47.271C41.3848 45.9012 41.6964 44.509 41.924 43.102C42.142 41.614 42.397 41.243 42.984 41.557C43.436 41.799 43.267 43.404 42.465 46.486C42.192 47.537 42.165 47.453 42.725 47.423C43.8619 47.3631 44.9901 47.1906 46.093 46.908C46.182 46.819 43.872 37.933 42.778 34.152C42.665 33.761 42.498 33.136 42.408 32.763C42.3657 32.5318 42.2987 32.3058 42.208 32.089C42.187 32.089 42.02 32.162 41.838 32.246M18.162 43.197C16.462 43.802 15.678 46.527 16.65 48.44C17.54 50.192 19.661 51.516 20.998 51.153C21.483 51.022 21.482 51.027 21.193 50.201L20.937 49.469L20.605 49.369C18.056 48.569 17.061 45.394 19.044 44.39C19.522 44.148 19.583 43.936 19.275 43.59C19.1517 43.4191 18.9786 43.2904 18.7794 43.2215C18.5802 43.1526 18.3646 43.1468 18.162 43.205M20.982 48.213C20.996 48.397 20.982 48.413 20.816 48.395C20.65 48.377 20.642 48.384 20.779 48.441C20.8132 48.4625 20.853 48.4731 20.8934 48.4715C20.9337 48.4699 20.9726 48.4561 21.005 48.432C21.105 48.353 21.118 48.016 21.027 48.016C20.994 48.016 20.973 48.104 20.982 48.216" fill="#F7F7F7"/>
<path fill-rule="evenodd" clip-rule="evenodd" d="M23.23 11.69C22.679 12.031 22.785 15.373 23.466 19.164L23.698 20.456L23.716 19.224C23.726 18.547 23.692 17.339 23.641 16.541C23.5471 15.5438 23.5277 14.5411 23.583 13.541C23.67 13.314 24.011 13.3 24.214 13.514L24.403 13.714L24.208 13.46C24.101 13.32 23.989 13.22 23.96 13.238C23.931 13.256 23.914 13.248 23.923 13.221C23.8946 13.1217 23.8436 13.0303 23.774 12.954C23.509 12.607 23.574 12.296 23.912 12.296C24.15 12.296 24.578 12.61 25.133 13.196C25.587 13.672 25.639 13.689 25.213 13.222C24.972 12.958 25.08 12.922 25.794 13.047C26.101 13.099 26.557 13.159 26.805 13.179L27.257 13.216L27.046 13.08C25.879 12.33 23.564 11.491 23.231 11.697M44.931 11.904C43.9908 12.2159 43.0859 12.6255 42.231 13.126C42.306 13.126 42.367 13.101 42.367 13.079C42.367 13.057 42.496 13.064 42.653 13.094C42.9074 13.1336 43.1638 13.159 43.421 13.17L43.903 13.191L44.227 12.891C44.4921 12.6141 44.8087 12.3917 45.159 12.236C45.395 12.236 45.48 12.584 45.307 12.844C45.172 13.044 45.171 13.065 45.207 14.467C45.227 15.247 45.251 17.174 45.26 18.75C45.272 20.82 45.291 21.481 45.33 21.133C45.359 20.868 45.506 19.797 45.656 18.755C45.806 17.713 45.913 16.819 45.894 16.769C45.8839 16.7486 45.8805 16.7255 45.8842 16.7031C45.888 16.6806 45.8988 16.66 45.915 16.644C46.1816 15.1327 46.2153 13.5895 46.015 12.068C45.832 11.632 45.761 11.621 44.926 11.9M21.689 12.718C21.689 12.867 21.701 12.928 21.715 12.854C21.7293 12.7642 21.7293 12.6728 21.715 12.583C21.701 12.508 21.689 12.568 21.689 12.718ZM47.394 13.654C47.394 14.254 47.403 14.487 47.414 14.179C47.425 13.871 47.425 13.379 47.414 13.093C47.403 12.807 47.394 13.057 47.394 13.654ZM32.999 13.065C33.1597 13.0778 33.3212 13.0778 33.482 13.065C33.606 13.052 33.489 13.042 33.224 13.042C32.959 13.042 32.858 13.052 32.999 13.065ZM35.771 13.066C35.9113 13.0792 36.0526 13.0792 36.193 13.066C36.318 13.053 36.231 13.042 35.998 13.042C35.765 13.042 35.664 13.052 35.771 13.066ZM31.945 13.116C32.0145 13.1312 32.0865 13.1312 32.156 13.116C32.214 13.101 32.167 13.088 32.05 13.088C31.933 13.088 31.887 13.1 31.945 13.116ZM37.011 13.116C37.0805 13.1312 37.1525 13.1312 37.222 13.116C37.28 13.101 37.232 13.088 37.116 13.088C37 13.088 36.953 13.1 37.011 13.116ZM30.133 13.237C30.2025 13.2522 30.2745 13.2522 30.344 13.237C30.402 13.222 30.354 13.209 30.238 13.209C30.122 13.209 30.074 13.221 30.132 13.237M39.09 13.298C39.1696 13.3128 39.2513 13.3128 39.331 13.298C39.389 13.283 39.331 13.271 39.194 13.272C39.057 13.273 39.014 13.285 39.094 13.299M43.594 13.513L43.417 13.713L43.617 13.536C43.6898 13.4757 43.7567 13.4088 43.817 13.336C43.817 13.289 43.767 13.33 43.602 13.513M33.611 14.146C34.086 14.156 34.846 14.156 35.3 14.146C35.754 14.136 35.366 14.127 34.437 14.127C33.508 14.127 33.137 14.135 33.611 14.146ZM31.798 14.204C31.8878 14.2183 31.9792 14.2183 32.069 14.204C32.144 14.19 32.083 14.178 31.933 14.178C31.783 14.178 31.724 14.19 31.798 14.204ZM36.864 14.204C36.9538 14.2183 37.0452 14.2183 37.135 14.204C37.21 14.19 37.149 14.178 36.999 14.178C36.849 14.178 36.79 14.19 36.864 14.204ZM30.982 14.263C31.0515 14.2782 31.1235 14.2782 31.193 14.263C31.251 14.248 31.204 14.235 31.087 14.235C30.97 14.235 30.924 14.248 30.982 14.263ZM29.444 14.386C29.5643 14.3997 29.6857 14.3997 29.806 14.386C29.897 14.372 29.806 14.361 29.606 14.362C29.406 14.363 29.333 14.374 29.441 14.387M47.326 15.369C47.326 15.518 47.338 15.579 47.352 15.505C47.3664 15.4149 47.3664 15.3231 47.352 15.233C47.338 15.158 47.326 15.219 47.326 15.369ZM25.805 17.131L25.628 17.331L25.828 17.154C25.9008 17.0937 25.9677 17.0268 26.028 16.954C26.028 16.907 25.978 16.948 25.813 17.131M43.37 17.237C43.4498 17.3266 43.539 17.4074 43.636 17.478C43.5803 17.3877 43.5112 17.3065 43.431 17.237C43.3512 17.1474 43.262 17.0666 43.165 16.996C43.2207 17.0863 43.2898 17.1675 43.37 17.237ZM29.57 19.637C29.6601 19.6514 29.7519 19.6514 29.842 19.637C29.917 19.623 29.856 19.611 29.706 19.611C29.556 19.611 29.496 19.623 29.57 19.637ZM30.97 20.228C31.0396 20.3075 31.1185 20.3783 31.205 20.439C31.222 20.439 31.143 20.339 31.031 20.228C30.9614 20.1485 30.8825 20.0777 30.796 20.017C30.779 20.017 30.858 20.117 30.97 20.228ZM41.002 20.615C41.074 20.746 41.141 20.844 41.153 20.832C41.1144 20.6751 41.037 20.5303 40.928 20.411C40.897 20.392 40.928 20.483 41.002 20.611M23.811 21.581C23.811 21.797 23.822 21.881 23.835 21.781C23.8484 21.6507 23.8484 21.5193 23.835 21.389C23.822 21.281 23.811 21.369 23.811 21.589M37.682 21.468C37.682 21.617 37.694 21.678 37.708 21.604C37.7224 21.5139 37.7224 21.4221 37.708 21.332C37.694 21.257 37.682 21.318 37.682 21.468ZM46.548 22.403C46.548 22.536 46.561 22.583 46.575 22.503C46.5898 22.4233 46.5898 22.3417 46.575 22.262C46.56 22.204 46.548 22.262 46.549 22.398M23.814 22.911C23.814 23.193 23.824 23.311 23.837 23.167C23.8497 22.9962 23.8497 22.8248 23.837 22.654C23.824 22.513 23.814 22.628 23.814 22.911ZM45.285 22.79C45.285 22.972 45.296 23.047 45.31 22.956C45.3237 22.8458 45.3237 22.7342 45.31 22.624C45.296 22.533 45.285 22.607 45.285 22.79ZM38.209 22.88C38.2785 22.9596 38.3574 23.0304 38.444 23.091C38.461 23.091 38.382 22.996 38.269 22.88C38.1994 22.8005 38.1205 22.7296 38.034 22.669C38.017 22.669 38.097 22.764 38.209 22.88ZM40.587 22.865L40.41 23.065L40.61 22.888C40.6828 22.8278 40.7498 22.7608 40.81 22.688C40.81 22.641 40.76 22.682 40.595 22.865M29.636 23.376C29.7563 23.3896 29.8777 23.3896 29.998 23.376C30.089 23.362 29.998 23.351 29.798 23.352C29.598 23.353 29.525 23.363 29.633 23.377M45.347 23.756C45.347 23.905 45.359 23.966 45.373 23.892C45.3873 23.8022 45.3873 23.7108 45.373 23.621C45.359 23.546 45.347 23.606 45.347 23.756ZM27.672 24.284C27.929 24.295 28.35 24.295 28.607 24.284C28.864 24.273 28.654 24.263 28.14 24.263C27.626 24.263 27.414 24.272 27.672 24.284ZM39.135 24.784C39.135 24.933 39.147 24.994 39.161 24.92C39.1753 24.8302 39.1753 24.7388 39.161 24.649C39.147 24.574 39.135 24.634 39.135 24.784ZM42.872 24.845C42.872 24.961 42.884 25.009 42.9 24.951C42.915 24.8815 42.915 24.8095 42.9 24.74C42.885 24.682 42.872 24.729 42.872 24.845ZM27.222 25.313C27.431 25.325 27.756 25.325 27.946 25.313C28.136 25.301 27.965 25.292 27.567 25.292C27.169 25.292 27.014 25.302 27.223 25.314M29.634 25.314C29.7136 25.3289 29.7953 25.3289 29.875 25.314C29.933 25.299 29.875 25.287 29.739 25.288C29.603 25.289 29.559 25.301 29.639 25.316M40.104 25.316C40.461 25.327 41.044 25.327 41.404 25.316C41.764 25.305 41.469 25.297 40.755 25.297C40.041 25.297 39.75 25.306 40.107 25.316M36.729 26.157C36.7985 26.1722 36.8705 26.1722 36.94 26.157C36.998 26.142 36.951 26.129 36.834 26.129C36.717 26.129 36.671 26.142 36.729 26.157ZM24.109 26.206C24.5551 27.2681 25.1648 28.2537 25.916 29.127C27.623 30.851 32.994 31.98 36.894 31.434C41.427 30.799 43.287 29.801 44.515 27.344L44.791 26.792L44.567 26.906C44.444 26.969 44.018 27.165 43.619 27.341C43.1688 27.5341 42.7435 27.7806 42.352 28.075C40.1851 29.7585 37.5277 30.6881 34.7839 30.7224C32.0401 30.7567 29.3603 29.8938 27.152 28.265C26.7243 27.9586 26.2702 27.6909 25.795 27.465C25.1594 27.252 24.604 26.8501 24.203 26.313C24.152 26.22 24.11 26.171 24.109 26.204M26.986 26.338C27.1163 26.3514 27.2477 26.3514 27.378 26.338C27.486 26.325 27.398 26.314 27.178 26.314C26.958 26.314 26.878 26.325 26.978 26.338M28.878 26.338C29.103 26.35 29.456 26.35 29.662 26.338C29.868 26.326 29.684 26.317 29.252 26.317C28.82 26.317 28.653 26.327 28.878 26.338ZM40.456 26.338C40.846 26.348 41.484 26.348 41.874 26.338C42.264 26.328 41.945 26.319 41.165 26.319C40.385 26.319 40.065 26.328 40.456 26.338ZM34.861 26.595C34.9408 26.6846 35.03 26.7654 35.127 26.836C35.0709 26.7457 35.0015 26.6644 34.921 26.595C34.8413 26.5053 34.7521 26.4245 34.655 26.354C34.7107 26.4442 34.7809 26.5255 34.861 26.595ZM30.321 26.866C30.321 26.999 30.334 27.046 30.348 26.966C30.3628 26.8863 30.3628 26.8047 30.348 26.725C30.333 26.667 30.321 26.725 30.322 26.861M26.774 27.218C26.8529 27.275 26.9476 27.3061 27.045 27.307C27.187 27.301 27.184 27.297 27.013 27.256C26.9201 27.2347 26.8294 27.2049 26.742 27.167C26.695 27.143 26.709 27.167 26.774 27.218ZM42.265 27.294C42.3345 27.3092 42.4065 27.3092 42.476 27.294C42.534 27.279 42.486 27.266 42.37 27.266C42.254 27.266 42.207 27.278 42.265 27.294ZM39.975 27.358C40.234 27.369 40.641 27.369 40.875 27.358C41.109 27.347 40.902 27.337 40.405 27.337C39.908 27.337 39.712 27.346 39.971 27.358M25.333 30.819C25.283 31.07 25.333 31.119 25.386 30.872C25.4086 30.802 25.4134 30.7274 25.4 30.655C25.385 30.64 25.355 30.714 25.334 30.82M42.303 31.263C38.533 33.199 31.133 33.29 27.192 31.448C26.9971 31.3504 26.7967 31.2639 26.592 31.189C26.555 31.24 25.792 34.024 25.483 35.216C25.048 36.91 24.045 40.657 23.368 43.111C22.241 47.195 22.039 48.293 22.225 49.302C22.2739 49.7396 22.4816 50.1442 22.8087 50.439C23.1358 50.7339 23.5596 50.8986 24 50.902C25.4085 51.0227 26.824 51.0398 28.235 50.953C28.215 50.907 28.09 50.625 27.957 50.327C27.774 49.917 27.132 48.058 26.957 47.427C26.6396 47.3424 26.3109 47.3087 25.983 47.327C25.0274 47.3014 24.078 47.1648 23.154 46.92C23.027 46.814 23.027 46.811 23.517 45.12C23.764 44.268 24.197 42.72 24.478 41.67C24.759 40.62 25.198 39.051 25.453 38.17C26.176 35.683 26.664 33.807 26.953 32.394C27.002 32.16 26.963 32.164 27.383 32.349C30.4662 33.4147 33.7438 33.7996 36.99 33.477C38.7718 33.272 40.5142 32.8082 42.162 32.1C42.205 32.081 42.289 32.316 42.395 32.752C42.486 33.127 42.653 33.752 42.766 34.144C43.86 37.925 46.166 46.811 46.081 46.9C44.8324 47.2479 43.537 47.3977 42.242 47.344C42.1491 47.5349 42.0796 47.7364 42.035 47.944C41.774 48.812 41.4594 49.663 41.093 50.492C40.829 51.049 40.768 51.017 42.019 50.979C46.453 50.845 46.79 50.705 46.976 48.922C47.076 47.952 46.095 43.565 44.263 36.807C43.953 35.663 43.25 32.971 42.963 31.846C42.9062 31.5734 42.8273 31.3058 42.727 31.046C42.708 31.046 42.514 31.14 42.296 31.252M25.049 31.827C25.0167 31.9167 25.0024 32.0118 25.007 32.107C25.022 32.121 25.063 32.018 25.098 31.877C25.1283 31.7868 25.1425 31.6921 25.14 31.597C25.127 31.584 25.086 31.688 25.049 31.827ZM24.849 32.527C24.8267 32.5913 24.8159 32.659 24.817 32.727C24.817 32.782 24.846 32.748 24.875 32.65C24.932 32.46 24.912 32.365 24.849 32.529M24.721 33.039C24.6984 33.1091 24.6936 33.1836 24.707 33.256C24.722 33.271 24.752 33.197 24.773 33.091C24.823 32.84 24.773 32.791 24.72 33.038M24.064 35.604C24.0417 35.6683 24.0309 35.736 24.032 35.804C24.032 35.859 24.061 35.825 24.09 35.727C24.147 35.537 24.127 35.442 24.064 35.606M23.936 36.116C23.9129 36.187 23.9087 36.2629 23.924 36.336C23.941 36.353 23.973 36.281 23.996 36.177C24.0191 36.106 24.0232 36.0301 24.008 35.957C23.991 35.94 23.959 36.011 23.936 36.116ZM23.785 36.78C23.7506 36.8882 23.7347 37.0015 23.738 37.115C23.753 37.13 23.797 37.002 23.838 36.831C23.8708 36.7224 23.8867 36.6094 23.885 36.496C23.872 36.483 23.827 36.61 23.785 36.78ZM23.635 37.353C23.611 37.453 23.553 37.668 23.507 37.831C23.4673 37.9587 23.4405 38.09 23.427 38.223C23.427 38.275 23.497 38.087 23.577 37.805C23.6388 37.619 23.6804 37.4269 23.701 37.232C23.689 37.199 23.659 37.253 23.635 37.353ZM23.067 39.53C22.9929 39.7884 22.9371 40.0517 22.9 40.318C22.9914 40.0778 23.0636 39.8307 23.116 39.579C23.19 39.3206 23.2458 39.0572 23.283 38.791C23.1914 39.0312 23.1192 39.2783 23.067 39.53ZM46.292 39.766C46.3078 39.8887 46.3342 40.0098 46.371 40.128C46.417 40.294 46.455 40.375 46.456 40.309C46.456 40.181 46.301 39.664 46.293 39.766M43.228 42.239C43.228 42.439 43.24 42.512 43.253 42.404C43.2667 42.2837 43.2667 42.1623 43.253 42.042C43.239 41.951 43.228 42.042 43.228 42.242M18.528 42.074C18.6483 42.0877 18.7697 42.0877 18.89 42.074C18.981 42.06 18.89 42.049 18.69 42.05C18.49 42.051 18.417 42.062 18.525 42.075M39.249 42.514C39.249 42.763 39.26 42.865 39.273 42.74C39.286 42.5896 39.286 42.4384 39.273 42.288C39.26 42.164 39.249 42.266 39.249 42.514ZM25.912 42.574C25.912 42.69 25.925 42.738 25.94 42.68C25.9552 42.6105 25.9552 42.5385 25.94 42.469C25.925 42.411 25.912 42.457 25.912 42.574ZM31.16 42.575C31.16 42.691 31.173 42.739 31.188 42.681C31.203 42.6115 31.203 42.5395 31.188 42.47C31.173 42.412 31.16 42.458 31.16 42.575ZM20.047 42.667L20.311 42.967C20.34 43 20.336 42.973 20.301 42.907C20.227 42.7955 20.1382 42.6946 20.037 42.607L19.837 42.426L20.047 42.667ZM30.016 42.787C30.016 42.92 30.029 42.967 30.043 42.887C30.0579 42.8074 30.0579 42.7256 30.043 42.646C30.028 42.588 30.016 42.646 30.017 42.782M37.986 43.082C37.986 43.382 37.996 43.51 38.009 43.37C38.0216 43.1892 38.0216 43.0078 38.009 42.827C37.997 42.668 37.986 42.784 37.986 43.082ZM31.225 43.352C31.225 43.501 31.237 43.562 31.251 43.488C31.2653 43.3982 31.2653 43.3068 31.251 43.217C31.237 43.142 31.225 43.202 31.225 43.352ZM39.186 43.444C39.186 43.577 39.199 43.624 39.213 43.544C39.2278 43.4644 39.2278 43.3826 39.213 43.303C39.198 43.245 39.186 43.303 39.187 43.439M30.081 43.56C30.081 43.726 30.093 43.787 30.107 43.695C30.121 43.5955 30.121 43.4945 30.107 43.395C30.093 43.321 30.081 43.395 30.082 43.562M17.245 43.79L17.007 44.046L17.263 43.808C17.501 43.586 17.547 43.534 17.501 43.534C17.41 43.6135 17.3245 43.699 17.245 43.79ZM19.419 43.926C19.419 44.036 19.439 44.113 19.464 44.098C19.4935 44.0457 19.509 43.9866 19.509 43.9265C19.509 43.8664 19.4935 43.8073 19.464 43.755C19.439 43.74 19.419 43.816 19.419 43.926ZM31.286 44.138C31.286 44.254 31.299 44.302 31.314 44.244C31.329 44.1745 31.329 44.1025 31.314 44.033C31.299 43.975 31.286 44.022 31.286 44.138ZM39.131 44.23C39.131 44.396 39.143 44.457 39.157 44.365C39.1709 44.2655 39.1709 44.1645 39.157 44.065C39.143 43.991 39.131 44.065 39.132 44.232M20.532 44.182C20.5075 44.3221 20.4602 44.4572 20.392 44.582L20.252 44.858L20.385 44.758C20.51 44.664 20.64 44.174 20.562 44.095C20.545 44.078 20.532 44.119 20.532 44.185M30.138 44.296C30.138 44.429 30.151 44.476 30.165 44.396C30.1799 44.3163 30.1799 44.2346 30.165 44.155C30.15 44.097 30.138 44.155 30.139 44.291M37.922 44.351C37.922 44.517 37.934 44.578 37.948 44.486C37.962 44.3865 37.962 44.2855 37.948 44.186C37.934 44.112 37.922 44.186 37.923 44.353M31.346 44.953C31.346 45.086 31.359 45.133 31.373 45.053C31.3879 44.9734 31.3879 44.8916 31.373 44.812C31.358 44.754 31.346 44.812 31.347 44.949M39.067 44.919C39.067 45.035 39.079 45.083 39.095 45.025C39.1102 44.9555 39.1102 44.8835 39.095 44.814C39.08 44.756 39.067 44.803 39.067 44.919ZM21.715 44.954C21.6933 45.0138 21.6881 45.0785 21.7 45.141C21.714 45.155 21.744 45.094 21.766 45.006C21.7874 44.9461 21.7923 44.8815 21.78 44.819C21.766 44.805 21.737 44.866 21.715 44.954ZM19.96 45.078C19.852 45.17 19.829 45.207 19.905 45.17C20.015 45.115 20.223 44.916 20.164 44.922C20.093 44.9681 20.026 45.0203 19.964 45.078M37.864 45.372C37.864 45.505 37.877 45.552 37.891 45.472C37.9058 45.3923 37.9058 45.3106 37.891 45.231C37.876 45.173 37.864 45.231 37.865 45.367M18.965 45.518C18.849 45.582 18.781 45.634 18.814 45.634C18.9097 45.6084 19.0013 45.5693 19.086 45.518C19.202 45.455 19.27 45.402 19.237 45.402C19.1417 45.4277 19.0504 45.4668 18.966 45.518M31.407 45.669C31.407 45.802 31.42 45.849 31.434 45.769C31.4488 45.6893 31.4488 45.6077 31.434 45.528C31.419 45.47 31.407 45.528 31.408 45.665M18.739 45.876C18.739 45.992 18.752 46.04 18.767 45.981C18.7822 45.9115 18.7822 45.8395 18.767 45.77C18.752 45.712 18.739 45.759 18.739 45.876ZM30.321 46.057C30.321 46.173 30.334 46.221 30.349 46.163C30.3642 46.0935 30.3642 46.0215 30.349 45.952C30.334 45.894 30.321 45.941 30.321 46.057ZM37.801 46.179C37.801 46.295 37.814 46.343 37.829 46.285C37.8442 46.2155 37.8442 46.1435 37.829 46.074C37.814 46.016 37.801 46.063 37.801 46.179ZM31.467 46.301C31.467 46.417 31.479 46.465 31.495 46.407C31.5102 46.3375 31.5102 46.2655 31.495 46.196C31.48 46.138 31.467 46.185 31.467 46.301ZM30.381 46.664C30.381 46.78 30.393 46.828 30.409 46.77C30.4242 46.7005 30.4242 46.6285 30.409 46.559C30.394 46.501 30.381 46.548 30.381 46.664ZM37.743 46.906C37.743 47.055 37.755 47.116 37.769 47.042C37.7833 46.9522 37.7833 46.8608 37.769 46.771C37.755 46.696 37.743 46.756 37.743 46.906ZM31.529 46.998C31.529 47.131 31.542 47.178 31.556 47.098C31.5708 47.0183 31.5708 46.9366 31.556 46.857C31.541 46.799 31.529 46.857 31.53 46.993M19.13 47.133C19.1931 47.243 19.2708 47.3439 19.361 47.433C19.429 47.492 19.405 47.433 19.304 47.293C19.062 46.957 18.995 46.893 19.13 47.131M30.442 47.187C30.434 47.323 30.434 47.323 29.284 47.323C28.216 47.323 28.136 47.33 28.167 47.429C28.185 47.487 28.294 47.847 28.41 48.229C28.61 48.906 28.926 49.776 29.258 50.597L29.422 51.004H30.139C30.3743 51.0176 30.6104 51.0129 30.845 50.99C30.845 50.908 30.48 47.29 30.461 47.19C30.442 47.09 30.438 47.09 30.431 47.205M38.668 48.849C38.575 49.828 38.484 50.717 38.468 50.825L38.435 51.025H39.657L39.777 50.825C40.1971 49.9172 40.5406 48.976 40.804 48.011C40.87 47.759 40.937 47.511 40.953 47.462C40.978 47.383 40.843 47.374 39.931 47.389L38.88 47.407L38.861 47.238C38.7699 47.7713 38.7068 48.3091 38.672 48.849M31.587 47.643C31.587 47.759 31.599 47.807 31.615 47.749C31.6302 47.6795 31.6302 47.6075 31.615 47.538C31.6 47.48 31.587 47.527 31.587 47.643ZM37.681 47.674C37.681 47.807 37.694 47.854 37.709 47.774C37.7239 47.6943 37.7239 47.6126 37.709 47.533C37.694 47.475 37.682 47.533 37.683 47.669M20.255 48.226C20.307 48.31 20.655 48.432 20.655 48.367C20.655 48.339 20.607 48.303 20.549 48.287C20.491 48.271 20.391 48.235 20.328 48.209C20.265 48.183 20.228 48.183 20.252 48.226M31.652 48.426C31.652 48.575 31.664 48.636 31.678 48.562C31.6923 48.4722 31.6923 48.3808 31.678 48.291C31.664 48.216 31.652 48.276 31.652 48.426ZM37.621 48.487C37.621 48.603 37.633 48.651 37.649 48.593C37.664 48.5235 37.664 48.4515 37.649 48.382C37.634 48.324 37.621 48.371 37.621 48.487ZM37.561 49.332C37.561 49.448 37.574 49.496 37.589 49.438C37.6042 49.3685 37.6042 49.2965 37.589 49.227C37.574 49.169 37.561 49.216 37.561 49.332ZM20.85 49.433C20.8803 49.444 20.9079 49.4615 20.9307 49.4843C20.9535 49.5071 20.971 49.5347 20.982 49.565C21.004 49.639 21.009 49.634 21 49.547C20.9967 49.5131 20.9817 49.4814 20.9576 49.4574C20.9336 49.4333 20.9019 49.4183 20.868 49.415C20.781 49.406 20.776 49.415 20.85 49.433ZM34.537 51.341C34.551 51.349 34.671 51.451 34.803 51.567L35.044 51.778L34.836 51.552C34.763 51.4599 34.6726 51.3831 34.57 51.326C34.538 51.326 34.523 51.333 34.537 51.341ZM34.256 51.703L34.079 51.903L34.279 51.726C34.3518 51.6658 34.4188 51.5988 34.479 51.526C34.479 51.479 34.429 51.52 34.264 51.703M33.228 52.093C33.3275 52.107 33.4285 52.107 33.528 52.093C33.602 52.079 33.528 52.067 33.361 52.068C33.194 52.069 33.134 52.08 33.226 52.094M35.79 52.094C35.9103 52.1076 36.0317 52.1076 36.152 52.094C36.243 52.08 36.152 52.069 35.952 52.07C35.752 52.071 35.679 52.082 35.787 52.095" fill="#DDDDDD"/>
</g>
<defs>
<clipPath id="clip0_2_2">
<rect width="141" height="62" fill="white" transform="translate(0 0.5)"/>
</clipPath>
</defs>
</svg>
