<svg width="150" height="68" viewBox="0 0 150 68" fill="none" xmlns="http://www.w3.org/2000/svg">
<g opacity="0.8">
<mask id="mask0_623_31" style="mask-type:luminance" maskUnits="userSpaceOnUse" x="0" y="0" width="150" height="67">
<path d="M150 0.531982H0V66.4894H150V0.531982Z" fill="white"/>
</mask>
<g mask="url(#mask0_623_31)">
<path d="M135.106 1.17017H14.8935C7.0205 1.17017 0.638184 7.55248 0.638184 15.4255V51.5957C0.638184 59.4687 7.0205 65.851 14.8935 65.851H135.106C142.98 65.851 149.362 59.4687 149.362 51.5957V15.4255C149.362 7.55248 142.98 1.17017 135.106 1.17017Z" stroke="#594470" stroke-width="1.2"/>
<path d="M53.1915 0.531982H14.8936C6.6681 0.531982 0 7.20008 0 15.4256V51.5958C0 59.8213 6.6681 66.4894 14.8936 66.4894H53.1915C61.417 66.4894 68.0851 59.8213 68.0851 51.5958V15.4256C68.0851 7.20008 61.417 0.531982 53.1915 0.531982Z" fill="#F7F7F7"/>
<path d="M53.1914 1.17017H14.8935C7.0205 1.17017 0.638184 7.55248 0.638184 15.4255V51.5957C0.638184 59.4687 7.0205 65.851 14.8935 65.851H53.1914C61.0644 65.851 67.4467 59.4687 67.4467 51.5957V15.4255C67.4467 7.55248 61.0644 1.17017 53.1914 1.17017Z" stroke="#594470" stroke-width="1.2"/>
<path fill-rule="evenodd" clip-rule="evenodd" d="M23.9831 11.2723C23.4182 11.5287 23.2139 12.017 23.1182 13.3255C23.0583 15.8448 23.264 18.3633 23.732 20.8394C24.043 22.2963 24.1369 23.7912 24.0107 25.2755C23.9694 26.525 24.1893 27.7694 24.6563 28.929C25.1232 30.0887 25.8269 31.1383 26.7224 32.0106C27.0501 32.3447 27.098 32.4223 27.0628 32.5713C27.0405 32.666 26.866 33.3074 26.6745 33.9957C26.4831 34.684 26.0575 36.3298 25.7288 37.6532C25.4001 38.9766 24.798 41.3447 24.3916 42.9149C23.2671 47.2596 22.7533 49.4043 22.6075 50.3617C22.4011 51.7149 22.3948 51.7245 21.7565 51.4255C21.2813 51.202 20.8683 50.865 20.554 50.4443C20.2398 50.0235 20.0338 49.5319 19.9543 49.0128C19.899 48.5702 19.9437 48.517 20.5777 48.2777C21.5022 47.9277 21.8841 47.4564 21.8735 46.6819C21.8498 46.3301 21.736 45.9903 21.5433 45.695C21.3505 45.3997 21.0852 45.1588 20.7726 44.9955C20.4602 44.8321 20.1109 44.7518 19.7585 44.762C19.406 44.7723 19.0621 44.873 18.7597 45.0543C14.3628 47.1372 15.3554 53.7096 20.3065 55.3223C21.7139 55.7808 23.7714 55.5064 23.7714 54.8606C23.7714 54.7043 23.7809 54.7043 24.1107 54.8745C24.7373 55.1936 24.816 55.2032 29.1107 55.2319L33.1352 55.2585L33.5735 55.6968C34.2118 56.3351 35.049 56.4957 36.5405 56.2543C36.8259 56.1893 37.1227 56.1929 37.4065 56.2649C37.9013 56.3981 38.4208 56.4097 38.921 56.2985C39.4211 56.1873 39.887 55.9568 40.2788 55.6266L40.6458 55.2521H44.7065C49.5182 55.2521 49.7065 55.2308 50.2756 54.6553C51.0526 53.4563 51.3341 52.0024 51.0607 50.6C51.0192 50.4585 50.8969 49.8383 50.7873 49.217C50.6777 48.5957 50.4745 47.5894 50.3341 46.9713C49.7416 44.3649 49.3363 42.6755 48.9565 41.2266C48.7352 40.3755 48.2299 38.4447 47.8352 36.9277C47.4405 35.4106 47.0054 33.7521 46.8682 33.2436L46.6182 32.3191L46.9863 31.9043C49.1139 29.5043 49.9086 27.283 49.5937 24.5872C49.481 23.6872 49.4907 22.7762 49.6224 21.8787C49.6937 21.5947 50.0373 19.2128 50.2533 17.517C50.4033 15.8118 50.4122 14.0971 50.2799 12.3904C49.8618 10.5043 47.8575 10.8319 42.9011 13.5979L41.849 14.1851L40.848 14.0862C39.2363 13.924 37.6165 13.8572 35.9969 13.8862C34.7522 13.9266 31.8543 14.0989 31.6469 14.1436C31.2509 13.993 30.8739 13.7966 30.5235 13.5585C27.6086 11.7936 24.9256 10.8606 23.9894 11.2862M26.1788 12.6989C26.5671 12.8447 27.349 13.1915 27.9118 13.4713C28.8588 13.9405 29.7787 14.4626 30.6671 15.0351C31.1235 15.317 31.2671 15.3255 32.9522 15.1617C35.4193 15.0087 37.8936 15.0087 40.3607 15.1617L41.8501 15.3096L42.2469 15.3489L43.1905 14.817C45.4043 13.5723 48.2756 12.3489 48.6809 12.4766C49.299 12.6723 49.2863 15.0532 48.6437 19.4979C48.2801 21.1507 48.1405 22.845 48.2288 24.5351C48.4819 25.9833 48.2283 27.4744 47.5107 28.7574C46.3022 31.1777 45.2224 32.033 42.4043 32.8074C39.1942 33.6693 35.8285 33.7785 32.5692 33.1266C29.7554 32.6223 27.9001 31.6723 26.9416 30.2468C25.4873 28.083 25.3139 27.466 25.3224 24.4798C25.3778 23.5234 25.3358 22.5638 25.1969 21.616L24.8777 19.8149C24.5369 18.1267 24.3739 16.4073 24.3916 14.6851C24.3916 12.1511 24.4777 12.0511 26.1863 12.6915M47.5139 13.3372C46.205 14.5081 45.1203 15.9074 44.3128 17.467C44.0245 18.2862 44.1416 18.5415 45.0341 19.05C46.0671 19.6383 46.0703 19.6394 46.2767 19.5606C46.8926 19.3266 46.4682 18.35 45.582 17.9585C45.4711 17.9198 45.368 17.8621 45.2767 17.7883C45.9403 16.6036 46.7215 15.4887 47.6086 14.4606C48.3299 13.5638 48.3894 13.4553 48.2788 13.2245C48.1511 12.9585 47.9841 12.9819 47.5139 13.3372ZM25.1916 13.1564C25.0267 13.3213 25.1097 13.5649 25.4735 13.983C26.3942 15.0864 27.2469 16.2449 28.0267 17.4521L28.198 17.75L27.9182 17.9138C27.0958 18.3957 26.748 19.2309 27.2639 19.4777C27.5214 19.6 27.4511 19.6277 28.515 18.9957C29.6926 18.2968 29.6777 17.8989 28.4086 16.1234C26.8277 13.916 25.5863 12.7713 25.1958 13.1606M30.9267 21.067C30.6837 21.1844 30.4673 21.3503 30.291 21.5547C30.1148 21.759 29.9823 21.9973 29.9019 22.2549C29.8214 22.5124 29.7947 22.7838 29.8233 23.0521C29.8518 23.3204 29.9352 23.5801 30.0682 23.8149C30.2217 24.1332 30.4652 24.3996 30.7685 24.5811C31.0718 24.7626 31.4216 24.8512 31.7747 24.836C32.1277 24.8209 32.4687 24.7026 32.7553 24.4957C33.0419 24.2889 33.2616 24.0027 33.3873 23.6723C33.5316 23.3224 33.5718 22.9382 33.5028 22.566C33.434 22.1938 33.2591 21.8494 32.9992 21.5741C32.7393 21.299 32.4055 21.1048 32.0378 21.0148C31.6701 20.9248 31.2843 20.943 30.9267 21.067ZM41.4586 21.0128C41.1915 21.1068 40.9474 21.2564 40.7423 21.4516C40.5373 21.6469 40.3759 21.8834 40.2689 22.1455C40.1618 22.4077 40.1116 22.6895 40.1214 22.9724C40.1311 23.2554 40.2007 23.5331 40.3256 23.7872C40.4916 24.1405 40.767 24.4308 41.1109 24.6153C41.4549 24.7998 41.8491 24.8685 42.2352 24.8114C42.6214 24.7541 42.9787 24.574 43.2544 24.2979C43.5302 24.0216 43.7095 23.6638 43.766 23.2777C43.8503 22.9601 43.8488 22.6259 43.7619 22.309C43.675 21.9922 43.5056 21.704 43.2711 21.4739C43.0368 21.2438 42.7455 21.0799 42.4271 20.9988C42.1087 20.9179 41.7746 20.9227 41.4586 21.0128ZM31.9416 21.5596C31.9903 21.5938 32.0305 21.6388 32.0592 21.6911C32.088 21.7432 32.1043 21.8013 32.1072 21.8609C32.1101 21.9203 32.0993 21.9797 32.0758 22.0345C32.0522 22.0891 32.0166 22.1378 31.9714 22.1766C31.8818 22.2671 31.7607 22.3196 31.6335 22.3229C31.5063 22.3263 31.3825 22.2803 31.2884 22.1947C30.8628 21.7936 31.4756 21.1936 31.9416 21.5564M42.2937 21.6266C42.6246 21.9372 42.366 22.3819 41.9054 22.2947C41.8411 22.2903 41.7786 22.2728 41.7214 22.2432C41.6642 22.2137 41.6137 22.1727 41.5731 22.1229C41.5323 22.073 41.5023 22.0153 41.4849 21.9533C41.4673 21.8914 41.4627 21.8266 41.4714 21.7628C41.5001 21.4777 42.0394 21.3872 42.2926 21.6255M29.7533 25.8468C28.4065 25.8872 28.3554 25.9074 28.3554 26.3957C28.3554 26.884 28.332 26.8798 30.2299 26.8947C32.1277 26.9096 32.1735 26.8947 32.1735 26.4468C32.1735 25.9362 31.9607 25.7787 31.3075 25.8L29.7533 25.8468ZM41.9873 25.8298C41.7522 25.9202 41.6682 26.0638 41.6682 26.3691C41.6682 26.8745 41.6735 26.8766 43.6256 26.8766C45.5405 26.8766 45.5831 26.866 45.5831 26.4277C45.5868 26.2713 45.5314 26.1194 45.4277 26.0021L45.2724 25.8223L43.6767 25.8096C42.8001 25.8032 42.0394 25.8096 41.9863 25.834M36.416 26.0585C36.0735 26.1351 36.0214 26.2574 36.2033 26.5681C36.6958 27.4191 35.9905 28.0904 34.8671 27.8319C34.2065 27.6798 34.2405 28.4394 34.9065 28.717C35.482 28.9574 36.7277 28.534 36.7277 28.0968C36.7277 27.9649 36.9054 28.0479 37.1405 28.2883C37.9192 29.0862 39.6128 28.8681 39.3948 27.9989L39.3554 27.8426L38.6341 27.884C37.9182 27.9255 37.9118 27.9245 37.7086 27.7532C37.2267 27.3479 37.1075 26.9628 37.3714 26.6638C37.7863 26.1915 37.2756 25.867 36.4139 26.0585M28.8426 28.016C28.3054 28.0468 28.2171 28.1415 28.3107 28.5819C28.4043 29.0223 28.5448 29.0606 30.4288 29.0617C32.1309 29.0617 32.1841 29.0489 32.2128 28.6011C32.2437 28.1298 32.1065 28.0383 31.4011 28.0383C31.0894 28.0383 30.4894 28.0277 30.0692 28.0138C29.649 28 29.0948 28.0021 28.8373 28.0138M41.7575 28.1777C41.6931 28.2908 41.6586 28.4186 41.6575 28.5489C41.6575 29.0585 41.6724 29.0628 43.3139 29.0585C44.115 29.0585 44.9097 29.0308 45.0873 29.0032C45.6097 28.917 45.8033 28.517 45.4799 28.1936L45.3224 28.0362H43.5905C41.8735 28.0362 41.8575 28.0362 41.7586 28.1787M45.6948 33.8915C45.9958 35.0894 46.7437 37.9521 47.0777 39.1691C49.0267 46.3574 50.0714 51.0255 49.9639 52.0574C49.765 53.9543 49.4065 54.1032 44.6905 54.2457C43.3597 54.2862 43.4256 54.3202 43.7054 53.7277C44.9107 51.1745 46.316 45.0043 45.8331 44.383C45.7776 44.3097 45.7047 44.2516 45.6208 44.214C45.5371 44.1765 45.4451 44.1606 45.3536 44.1681C45.262 44.1755 45.1738 44.206 45.0971 44.2565C45.0205 44.3071 44.9578 44.3762 44.915 44.4574C44.7122 45.0505 44.5874 45.6673 44.5437 46.2926C44.4288 47.0308 43.9139 49.3074 43.6926 50.0713C43.5767 50.4638 43.4001 51.0734 43.299 51.4255C43.034 52.3156 42.71 53.1871 42.3288 54.034L42.2033 54.2468L41.5448 54.2649L40.8863 54.283L40.9235 54.0074C40.9437 53.8564 41.1033 52.2745 41.2777 50.4968C41.8331 44.8319 41.8394 44.6457 41.4841 44.3266C40.9373 43.8372 40.4448 44.3489 40.4448 45.4074C40.4448 46.7213 39.9128 53.7308 39.7777 54.1723C39.7195 54.4538 39.5852 54.714 39.3892 54.9245C39.1934 55.1348 38.9435 55.2874 38.6668 55.3655C38.3902 55.4437 38.0973 55.4444 37.8203 55.3676C37.5433 55.2907 37.2927 55.1393 37.0958 54.9298L36.7958 54.6628L36.4767 54.9819C35.5799 55.8787 34.2958 55.3862 33.9363 54.0064C33.8456 53.5105 33.7814 53.0101 33.7437 52.5074C33.4416 49.0787 33.3182 47.5681 33.2256 46.3245C33.0788 44.2872 32.8777 43.8606 32.2267 44.2085C31.8011 44.4351 31.7948 44.2191 32.5458 51.6553C32.6873 53.0543 32.8043 54.217 32.8043 54.2383C32.5521 54.2771 32.2965 54.2903 32.0416 54.2777H31.2788L31.1043 53.8447C30.0231 51.1124 29.2592 48.2651 28.8277 45.3585C28.6788 44.2415 28.1671 43.717 27.7341 44.2383C27.2309 44.8447 28.4884 50.7106 29.7214 53.5085L30.0277 54.2074C28.5267 54.2998 27.0208 54.2816 25.5224 54.1532C25.0539 54.1496 24.6031 53.9744 24.2551 53.6606C23.9071 53.347 23.6861 52.9167 23.6341 52.4511C23.4352 51.3777 23.6511 50.2096 24.8501 45.8638C25.5703 43.2532 26.6384 39.2681 27.1001 37.4649C27.4256 36.1968 28.2416 33.2351 28.2799 33.1808C28.4976 33.2605 28.7108 33.3526 28.9182 33.4564C33.1107 35.416 40.9831 35.3191 44.9937 33.2596C45.2256 33.1404 45.432 33.0468 45.4522 33.0404C45.5589 33.3168 45.6428 33.6015 45.7033 33.8915M20.1714 46.0606C20.8916 46.517 20.916 46.9117 20.2394 47.2489C18.2075 48.2787 19.2203 51.6266 21.8118 52.4436C22.298 52.5968 22.3022 52.6 22.3777 52.8787C22.4192 53.033 22.5448 53.3989 22.6554 53.6926C22.766 53.9862 22.8575 54.2362 22.8575 54.2479C22.5378 54.4008 22.1874 54.4784 21.8331 54.4745C20.7778 54.3598 19.7815 53.9302 18.9736 53.2417C18.1658 52.5532 17.5838 51.6376 17.3033 50.6138C16.6841 48.2457 18.6639 45.1043 20.1756 46.0606" fill="black"/>
<path fill-rule="evenodd" clip-rule="evenodd" d="M26.7935 14.0245C27.9246 15.1539 28.8089 16.5058 29.3903 17.9947C29.4424 18.433 29.3701 18.5352 28.7881 18.8533C28.5137 19.0033 28.1222 19.2394 27.9179 19.3777C27.5701 19.6128 27.5328 19.6245 27.3243 19.5554C26.6445 19.3309 27.0286 18.3756 28.036 17.7873C28.2105 17.6809 27.2435 16.2075 26.0243 14.7118L25.5892 14.1799C25.5477 14.1256 25.1222 14.315 25.0881 14.4033C25.0353 15.277 25.0455 16.1534 25.119 17.0256C25.2147 18.2788 25.3318 22.2703 25.3371 24.6618C25.3488 27.9937 25.5147 28.3554 27.4243 29.2128C27.9298 29.4531 28.4129 29.7379 28.8679 30.0639C30.4217 31.1677 32.184 31.9435 34.0474 32.3437C35.9108 32.7439 37.8363 32.7602 39.7062 32.3916C41.6605 31.9867 43.4893 31.1191 45.0392 29.8618C45.7525 29.3476 46.5352 28.9371 47.3637 28.6426C47.9424 28.3852 48.3445 26.7118 48.2147 25.0809C48.1775 24.6043 48.1477 22.7852 48.1477 21.0384C48.1477 19.2916 48.1286 16.9788 48.1052 15.9001L48.0626 13.9373L47.6435 14.4554C46.7669 15.4746 45.9902 16.5758 45.3243 17.7437C45.3243 17.7873 45.4615 17.8841 45.6286 17.9564C46.3871 18.2916 46.8232 19.0937 46.4498 19.4671C46.2371 19.6799 45.9956 19.6682 45.6413 19.4447C45.4839 19.3458 45.1307 19.1416 44.8562 18.9894C44.2456 18.6533 44.1328 18.499 44.1477 18.0224C44.4929 16.8005 45.1439 15.6867 46.0392 14.7862C46.719 13.9788 46.8796 13.7692 46.6988 13.9256C46.2611 14.0508 45.7971 14.0508 45.3594 13.9256C45.1818 13.8926 45.0658 13.8947 45.0658 13.9256C45.0658 13.9565 45.0413 13.9703 45.0115 13.9522C44.4096 14.1505 43.8371 14.4289 43.3094 14.7799C42.1828 15.4267 42.2456 15.4107 41.3626 15.2969C38.1453 14.9786 34.9044 14.9786 31.6871 15.2969C31.1552 15.3458 30.9679 15.2799 30.119 14.7352C29.2286 14.1639 28.9849 14.0384 28.7605 14.0384C28.6435 14.0384 28.2584 13.9926 27.9094 13.932C27.5605 13.8713 27.1115 13.8203 26.9201 13.8065L26.5732 13.782L26.7988 14.0203M32.3637 21.0564C32.7271 21.213 33.036 21.4737 33.2513 21.8057C33.4667 22.1377 33.5788 22.526 33.5736 22.9218C33.5682 23.3174 33.4459 23.7026 33.2219 24.0288C32.9978 24.355 32.6822 24.6074 32.3147 24.7543C30.5062 25.4362 28.9615 22.9905 30.2637 21.5118C30.5041 21.2007 30.8465 20.9845 31.2307 20.9012C31.6148 20.8179 32.016 20.8729 32.3637 21.0564ZM42.7339 21.0564C43.0691 21.1906 43.3558 21.4233 43.556 21.7237C43.7562 22.0242 43.8605 22.3784 43.8552 22.7394C43.8615 24.9309 41.1754 25.699 40.2881 23.7586C40.1067 23.4063 40.0369 23.0072 40.0882 22.6143C40.1396 22.2215 40.3096 21.8537 40.5756 21.56C40.8414 21.2662 41.1907 21.0607 41.5765 20.9707C41.9624 20.8808 42.3655 20.9107 42.7339 21.0564ZM31.285 21.6469C31.1328 21.8405 31.1254 21.8862 31.2201 22.0628C31.2675 22.1328 31.3325 22.1893 31.4085 22.2266C31.4845 22.2638 31.5689 22.2806 31.6534 22.2753C31.7378 22.2699 31.8194 22.2425 31.8901 22.1959C31.9607 22.1493 32.018 22.0852 32.0562 22.0096C32.2307 21.5501 31.5967 21.2511 31.285 21.6469ZM41.6264 21.5788C41.5848 21.6101 41.5508 21.6504 41.527 21.6968C41.5031 21.743 41.4901 21.7941 41.4888 21.8462C41.4874 21.8983 41.4978 21.95 41.5193 21.9974C41.5408 22.0449 41.5726 22.0869 41.6126 22.1203C41.836 22.3437 42.4467 22.249 42.4467 21.9905C42.4386 21.8989 42.4072 21.8109 42.3555 21.7349C42.3038 21.6588 42.2336 21.5972 42.1513 21.5559C42.0692 21.5146 41.9778 21.4952 41.8859 21.4991C41.7941 21.5032 41.7047 21.5306 41.6264 21.5788ZM32.052 25.9405C32.1472 26.0599 32.2029 26.206 32.2113 26.3586C32.2197 26.511 32.1804 26.6624 32.0988 26.7916C30.8953 26.9883 29.6684 26.9955 28.4626 26.8128C28.3824 26.6925 28.3368 26.5525 28.3307 26.408C28.3247 26.2636 28.3586 26.1202 28.4286 25.9937C28.552 25.8182 28.6584 25.8075 30.4498 25.7937L31.8988 25.783L32.0477 25.9416M45.336 25.849C45.481 25.9432 45.583 26.0907 45.6198 26.2596C45.6568 26.4285 45.6254 26.6052 45.5328 26.7511L45.4126 26.9001H43.6339H41.8562L41.7328 26.749C41.6457 26.6295 41.6015 26.4839 41.6077 26.3361C41.6139 26.1884 41.6701 26.047 41.7669 25.9352L41.9243 25.7777H43.5679C44.1577 25.7554 44.7485 25.7774 45.335 25.8437M37.3977 26.1033C37.6105 26.2713 37.6105 26.4224 37.3977 26.6724C37.2009 26.9054 37.2211 27.0777 37.4892 27.4564C37.7913 27.882 38.1052 27.965 38.8945 27.8192C39.3605 27.733 39.4264 27.7703 39.4264 28.1203C39.4264 28.9362 37.9647 29.0777 37.1584 28.3405L36.8264 28.0373L36.6137 28.2958C35.9552 29.0799 34.4264 28.9607 34.4296 28.1256C34.4296 27.7001 34.4775 27.6682 34.9615 27.799C35.9732 28.0735 36.6637 27.3905 36.1913 26.5841C36.1119 26.473 36.0694 26.3399 36.0701 26.2033C36.1647 25.9564 37.1254 25.8841 37.403 26.1033M32.0115 28.0309C32.0834 28.075 32.1455 28.1332 32.194 28.2021C32.2426 28.2709 32.2765 28.3489 32.294 28.4313C32.3114 28.5138 32.3119 28.5989 32.2953 28.6814C32.2788 28.7641 32.2456 28.8424 32.1977 28.9118C30.9634 29.1342 29.6997 29.1392 28.4637 28.9267C28.2243 28.6873 28.2115 28.066 28.4445 28.0054C29.633 27.9459 30.824 27.9537 32.0115 28.0309ZM45.3967 28.0543C45.4652 28.093 45.5243 28.1464 45.5697 28.2107C45.6152 28.2751 45.6458 28.3486 45.6593 28.4261C45.6728 28.5037 45.669 28.5833 45.648 28.6592C45.6271 28.7351 45.5895 28.8054 45.5381 28.865C44.303 29.1635 43.0185 29.1954 41.7701 28.9586C41.7139 28.8292 41.6841 28.69 41.6823 28.549C41.6805 28.408 41.7067 28.268 41.7594 28.1373C42.9606 27.9251 44.1872 27.8964 45.3967 28.0543ZM26.6637 32.0586C26.6637 32.0947 26.7498 32.1852 26.8562 32.2607C26.9137 32.3095 26.9788 32.3487 27.0488 32.3767C26.9912 32.3033 26.9268 32.2355 26.8562 32.1745C26.7498 32.0745 26.6637 32.0224 26.6637 32.0586ZM44.503 34.2926C40.4913 36.132 33.1626 36.1884 29.1424 34.4096C28.6956 34.2118 28.736 34.2075 28.685 34.4575C28.3743 35.9596 27.8541 37.9564 27.0892 40.6022C26.8179 41.5373 26.3509 43.2128 26.052 44.3256C25.753 45.4384 25.2935 47.0916 25.0296 47.9958C24.5094 49.7894 24.5084 49.7937 24.6435 49.9107C25.621 50.1697 26.6252 50.3151 27.636 50.3437L28.636 50.382L28.3264 49.1373C27.3956 45.3937 27.3477 44.0745 28.1435 44.0745C28.5296 44.0745 28.7094 44.3245 28.8211 45.0128C29.0649 46.6478 29.3991 48.268 29.8222 49.866L29.9637 50.3628H31.1711C32.2786 50.3628 32.3786 50.3533 32.3786 50.2501C32.3786 50.1884 32.2935 49.3001 32.1881 48.2767C31.8073 44.5533 31.8488 44.0735 32.553 44.0735C33.0179 44.0735 33.1254 44.416 33.2775 46.366C33.3477 47.2756 33.4764 48.8277 33.5615 49.816C33.6467 50.8043 33.7498 52.0064 33.7892 52.4873C33.9094 53.933 34.0435 54.4107 34.4743 54.9128C34.6005 55.0652 34.759 55.1874 34.9385 55.2706C35.1178 55.3538 35.3136 55.3959 35.5113 55.3939C35.709 55.3919 35.9039 55.3457 36.0815 55.2588C36.2591 55.1719 36.4152 55.0464 36.5381 54.8915L36.8158 54.5894L37.1211 54.8756C37.3179 55.0946 37.5736 55.2526 37.8575 55.3305C38.1415 55.4084 38.442 55.403 38.7229 55.3151C39.004 55.2271 39.2538 55.0602 39.4427 54.8341C39.6315 54.6081 39.7514 54.3327 39.7881 54.0405C39.8403 53.8352 39.9562 52.6713 40.0456 51.4533C40.135 50.2352 40.2371 48.8926 40.2701 48.4745C40.303 48.0564 40.3605 47.032 40.3967 46.2107C40.4764 44.3947 40.569 44.1437 41.1562 44.1437C41.8605 44.1437 41.9328 45.0171 41.5232 48.5394C41.4743 48.965 41.4169 49.5618 41.3881 49.8713L41.3435 50.433H42.4445C43.5254 50.433 43.5467 50.433 43.6073 50.2884C44.0262 48.8311 44.3577 47.3501 44.5998 45.8533C44.8318 44.2703 45.103 43.8756 45.7275 44.2096C46.2084 44.4671 46.0286 46.1745 45.1754 49.4533C44.8849 50.5713 44.8562 50.482 45.452 50.4501C46.6614 50.3863 47.8617 50.2028 49.0349 49.9022C49.1296 49.8075 46.6722 40.3543 45.5084 36.332C45.3881 35.916 45.2105 35.2511 45.1147 34.8543C45.0697 34.6084 44.9985 34.3679 44.902 34.1373C44.8796 34.1373 44.702 34.215 44.5084 34.3043M19.3211 45.9543C17.5126 46.5979 16.6786 49.4969 17.7126 51.532C18.6594 53.3958 20.9158 54.8043 22.3381 54.4181C22.8541 54.2788 22.853 54.2841 22.5456 53.4054L22.2732 52.6267L21.9201 52.5203C19.2084 51.6692 18.1498 48.2916 20.2594 47.2235C20.7679 46.966 20.8328 46.7405 20.5052 46.3724C20.374 46.1906 20.1898 46.0537 19.9779 45.9804C19.766 45.9071 19.5367 45.9009 19.3211 45.9628M22.3211 51.2905C22.336 51.4862 22.3211 51.5033 22.1445 51.4841C21.9679 51.465 21.9594 51.4724 22.1052 51.533C22.1415 51.5559 22.1839 51.5672 22.2269 51.5655C22.2697 51.5638 22.3111 51.5491 22.3456 51.5235C22.452 51.4394 22.4658 51.0809 22.369 51.0809C22.3339 51.0809 22.3115 51.1745 22.3211 51.2937" fill="#F7F7F7"/>
<path fill-rule="evenodd" clip-rule="evenodd" d="M24.713 12.4361C24.1268 12.7989 24.2396 16.3542 24.964 20.3872L25.2109 21.7617L25.23 20.451C25.2406 19.7308 25.2045 18.4457 25.1502 17.5968C25.0503 16.5359 25.0297 15.4692 25.0885 14.4053C25.1811 14.1638 25.5438 14.1489 25.7598 14.3766L25.9609 14.5893L25.7534 14.3191C25.6396 14.1702 25.5204 14.0638 25.4896 14.0829C25.4587 14.1021 25.4406 14.0936 25.4502 14.0648C25.42 13.9592 25.3658 13.862 25.2917 13.7808C25.0098 13.4117 25.0789 13.0808 25.4385 13.0808C25.6917 13.0808 26.147 13.4148 26.7375 14.0383C27.2204 14.5446 27.2758 14.5627 26.8226 14.0659C26.5662 13.7851 26.6811 13.7468 27.4406 13.8797C27.7672 13.9351 28.2523 13.9989 28.5162 14.0202L28.997 14.0595L28.7726 13.9148C27.5311 13.117 25.0683 12.2244 24.7141 12.4436M47.7992 12.6638C46.7989 12.9956 45.8363 13.4313 44.9268 13.9638C45.0066 13.9638 45.0715 13.9372 45.0715 13.9138C45.0715 13.8904 45.2087 13.8978 45.3758 13.9297C45.6464 13.9719 45.9192 13.9989 46.1928 14.0106L46.7055 14.0329L47.0502 13.7138C47.3322 13.4192 47.6691 13.1826 48.0417 13.017C48.2928 13.017 48.3832 13.3872 48.1992 13.6638C48.0555 13.8766 48.0545 13.8989 48.0928 15.3904C48.1141 16.2202 48.1396 18.2702 48.1492 19.9468C48.1619 22.1489 48.1821 22.8521 48.2236 22.4819C48.2545 22.2 48.4109 21.0606 48.5704 19.9521C48.73 18.8436 48.8438 17.8925 48.8236 17.8393C48.8129 17.8176 48.8093 17.793 48.8132 17.7692C48.8172 17.7453 48.8287 17.7234 48.846 17.7063C49.1296 16.0986 49.1654 14.4569 48.9523 12.8383C48.7577 12.3744 48.6821 12.3627 47.7938 12.6595M23.0736 13.5297C23.0736 13.6883 23.0864 13.7531 23.1013 13.6744C23.1165 13.5789 23.1165 13.4817 23.1013 13.3861C23.0864 13.3063 23.0736 13.3702 23.0736 13.5297ZM50.4194 14.5255C50.4194 15.1638 50.4289 15.4117 50.4406 15.084C50.4523 14.7563 50.4523 14.2329 50.4406 13.9287C50.4289 13.6244 50.4194 13.8904 50.4194 14.5255ZM35.1055 13.8989C35.2765 13.9125 35.4483 13.9125 35.6194 13.8989C35.7513 13.8851 35.6268 13.8744 35.3449 13.8744C35.063 13.8744 34.9555 13.8851 35.1055 13.8989ZM38.0545 13.9C38.2037 13.914 38.3541 13.914 38.5034 13.9C38.6364 13.8861 38.5438 13.8744 38.296 13.8744C38.0481 13.8744 37.9406 13.8851 38.0545 13.9ZM33.9843 13.9531C34.0582 13.9693 34.1348 13.9693 34.2087 13.9531C34.2704 13.9372 34.2204 13.9234 34.096 13.9234C33.9715 13.9234 33.9226 13.9361 33.9843 13.9531ZM39.3736 13.9531C39.4476 13.9693 39.5242 13.9693 39.5981 13.9531C39.6598 13.9372 39.6087 13.9234 39.4853 13.9234C39.3619 13.9234 39.3119 13.9361 39.3736 13.9531ZM32.0566 14.0819C32.1305 14.098 32.2071 14.098 32.2811 14.0819C32.3428 14.0659 32.2917 14.0521 32.1683 14.0521C32.0449 14.0521 31.9949 14.0648 32.0566 14.0819ZM41.5853 14.1468C41.67 14.1625 41.7569 14.1625 41.8417 14.1468C41.9034 14.1308 41.8417 14.118 41.696 14.1191C41.5502 14.1202 41.5045 14.1329 41.5896 14.1478M46.3768 14.3755L46.1885 14.5883L46.4013 14.4C46.4787 14.3358 46.5499 14.2646 46.6141 14.1872C46.6141 14.1372 46.5609 14.1808 46.3853 14.3755M35.7566 15.0489C36.2619 15.0595 37.0704 15.0595 37.5534 15.0489C38.0364 15.0383 37.6236 15.0287 36.6353 15.0287C35.647 15.0287 35.2523 15.0372 35.7566 15.0489ZM33.8279 15.1106C33.9234 15.1258 34.0206 15.1258 34.1162 15.1106C34.196 15.0957 34.1311 15.0829 33.9715 15.0829C33.8119 15.0829 33.7492 15.0957 33.8279 15.1106ZM39.2172 15.1106C39.3128 15.1258 39.41 15.1258 39.5055 15.1106C39.5853 15.0957 39.5204 15.0829 39.3609 15.0829C39.2013 15.0829 39.1385 15.0957 39.2172 15.1106ZM32.9598 15.1734C33.0337 15.1895 33.1103 15.1895 33.1843 15.1734C33.246 15.1574 33.196 15.1436 33.0715 15.1436C32.947 15.1436 32.8981 15.1574 32.9598 15.1734ZM31.3236 15.3042C31.4516 15.3188 31.5808 15.3188 31.7087 15.3042C31.8055 15.2893 31.7087 15.2776 31.496 15.2787C31.2832 15.2797 31.2055 15.2914 31.3204 15.3053M50.347 16.35C50.347 16.5085 50.3598 16.5734 50.3747 16.4946C50.39 16.3988 50.39 16.3011 50.3747 16.2053C50.3598 16.1255 50.347 16.1904 50.347 16.35ZM27.4523 18.2244L27.2641 18.4372L27.4768 18.2489C27.5543 18.1847 27.6254 18.1136 27.6896 18.0361C27.6896 17.9861 27.6364 18.0297 27.4609 18.2244M46.1385 18.3372C46.2234 18.4325 46.3183 18.5185 46.4215 18.5936C46.3622 18.4975 46.2887 18.4111 46.2034 18.3372C46.1185 18.2419 46.0236 18.1559 45.9204 18.0808C45.9797 18.1769 46.0532 18.2633 46.1385 18.3372ZM31.4577 20.8904C31.5535 20.9057 31.6512 20.9057 31.747 20.8904C31.8268 20.8755 31.7619 20.8627 31.6023 20.8627C31.4428 20.8627 31.3789 20.8755 31.4577 20.8904ZM32.947 21.5191C33.0211 21.6037 33.105 21.679 33.197 21.7436C33.2151 21.7436 33.1311 21.6372 33.0119 21.5191C32.9379 21.4345 32.8539 21.3592 32.7619 21.2946C32.7438 21.2946 32.8279 21.401 32.947 21.5191ZM43.6194 21.9308C43.696 22.0702 43.7672 22.1744 43.78 22.1617C43.7389 21.9947 43.6566 21.8407 43.5406 21.7138C43.5077 21.6936 43.5406 21.7904 43.6194 21.9265M25.3311 22.9585C25.3311 23.1883 25.3428 23.2776 25.3566 23.1712C25.3709 23.0326 25.3709 22.8928 25.3566 22.7542C25.3428 22.6393 25.3311 22.7329 25.3311 22.967M40.0875 22.8383C40.0875 22.9968 40.1002 23.0617 40.1151 22.9829C40.1304 22.8871 40.1304 22.7894 40.1151 22.6936C40.1002 22.6138 40.0875 22.6787 40.0875 22.8383ZM49.5194 23.8329C49.5194 23.9744 49.5332 24.0244 49.5481 23.9393C49.5638 23.8545 49.5638 23.7677 49.5481 23.6829C49.5321 23.6212 49.5194 23.6829 49.5204 23.8276M25.3343 24.3734C25.3343 24.6734 25.3449 24.7989 25.3587 24.6457C25.3722 24.464 25.3722 24.2817 25.3587 24.1C25.3449 23.95 25.3343 24.0723 25.3343 24.3734ZM48.1758 24.2446C48.1758 24.4383 48.1875 24.518 48.2023 24.4212C48.2169 24.304 48.2169 24.1853 48.2023 24.068C48.1875 23.9712 48.1758 24.05 48.1758 24.2446ZM40.6481 24.3404C40.722 24.4251 40.806 24.5004 40.8981 24.5648C40.9162 24.5648 40.8321 24.4638 40.7119 24.3404C40.6379 24.2558 40.5539 24.1804 40.4619 24.1159C40.4438 24.1159 40.5289 24.217 40.6481 24.3404ZM43.1779 24.3244L42.9896 24.5372L43.2023 24.3489C43.2798 24.2848 43.3511 24.2136 43.4151 24.1361C43.4151 24.0861 43.3619 24.1297 43.1864 24.3244M31.5279 24.868C31.6559 24.8825 31.785 24.8825 31.913 24.868C32.0098 24.8531 31.913 24.8414 31.7002 24.8425C31.4875 24.8436 31.4098 24.8542 31.5247 24.8691M48.2417 25.2723C48.2417 25.4308 48.2545 25.4957 48.2694 25.417C48.2846 25.3214 48.2846 25.2242 48.2694 25.1287C48.2545 25.0489 48.2417 25.1127 48.2417 25.2723ZM29.4385 25.834C29.7119 25.8457 30.1598 25.8457 30.4332 25.834C30.7066 25.8223 30.4832 25.8117 29.9364 25.8117C29.3896 25.8117 29.1641 25.8212 29.4385 25.834ZM41.6332 26.3659C41.6332 26.5244 41.646 26.5893 41.6609 26.5106C41.6761 26.4151 41.6761 26.3178 41.6609 26.2223C41.646 26.1425 41.6332 26.2063 41.6332 26.3659ZM45.6087 26.4308C45.6087 26.5542 45.6215 26.6053 45.6385 26.5436C45.6545 26.4696 45.6545 26.393 45.6385 26.3191C45.6226 26.2574 45.6087 26.3074 45.6087 26.4308ZM28.9598 26.9287C29.1821 26.9414 29.5279 26.9414 29.73 26.9287C29.9321 26.9159 29.7502 26.9063 29.3268 26.9063C28.9034 26.9063 28.7385 26.917 28.9609 26.9297M31.5258 26.9297C31.6104 26.9456 31.6973 26.9456 31.7821 26.9297C31.8438 26.9138 31.7821 26.901 31.6375 26.9021C31.4928 26.9031 31.446 26.9159 31.5311 26.9319M42.664 26.9319C43.0438 26.9436 43.664 26.9436 44.047 26.9319C44.43 26.9202 44.1162 26.9117 43.3566 26.9117C42.597 26.9117 42.2875 26.9212 42.6672 26.9319M39.0736 27.8265C39.1476 27.8427 39.2242 27.8427 39.2981 27.8265C39.3598 27.8106 39.3098 27.7968 39.1853 27.7968C39.0609 27.7968 39.0119 27.8106 39.0736 27.8265ZM25.6481 27.8787C26.1227 29.0086 26.7713 30.0571 27.5704 30.9861C29.3864 32.8202 35.1002 34.0212 39.2492 33.4404C44.0715 32.7648 46.0502 31.7031 47.3566 29.0893L47.6502 28.5021L47.4119 28.6234C47.2811 28.6904 46.8279 28.8989 46.4034 29.0861C45.9245 29.2915 45.472 29.5538 45.0555 29.867C42.7503 31.6579 39.9233 32.6469 37.0044 32.6834C34.0854 32.7198 31.2346 31.8019 28.8853 30.0691C28.4303 29.7431 27.9472 29.4584 27.4417 29.218C26.7655 28.9914 26.1747 28.5639 25.7481 27.9925C25.6938 27.8936 25.6492 27.8414 25.6481 27.8765M28.7087 28.0191C28.8473 28.0334 28.9871 28.0334 29.1258 28.0191C29.2406 28.0053 29.147 27.9936 28.913 27.9936C28.6789 27.9936 28.5938 28.0053 28.7002 28.0191M30.7215 28.0191C30.9609 28.0319 31.3364 28.0319 31.5555 28.0191C31.7747 28.0063 31.5789 27.9968 31.1194 27.9968C30.6598 27.9968 30.4821 28.0074 30.7215 28.0191ZM43.0385 28.0191C43.4534 28.0297 44.1321 28.0297 44.547 28.0191C44.9619 28.0085 44.6226 27.9989 43.7928 27.9989C42.963 27.9989 42.6226 28.0085 43.0385 28.0191ZM37.0864 28.2925C37.1713 28.3878 37.2662 28.4738 37.3694 28.5489C37.3097 28.4528 37.2359 28.3663 37.1502 28.2925C37.0654 28.1971 36.9705 28.1111 36.8672 28.0361C36.9265 28.1321 37.0012 28.2186 37.0864 28.2925ZM32.2566 28.5808C32.2566 28.7223 32.2704 28.7723 32.2853 28.6872C32.3011 28.6024 32.3011 28.5156 32.2853 28.4308C32.2694 28.3691 32.2566 28.4308 32.2577 28.5755M28.4832 28.9553C28.5671 29.0159 28.6679 29.049 28.7715 29.05C28.9226 29.0436 28.9194 29.0393 28.7375 28.9957C28.6386 28.973 28.5421 28.9413 28.4492 28.901C28.3992 28.8755 28.4141 28.901 28.4832 28.9553ZM44.963 29.0361C45.0369 29.0523 45.1135 29.0523 45.1875 29.0361C45.2492 29.0202 45.1981 29.0063 45.0747 29.0063C44.9513 29.0063 44.9013 29.0191 44.963 29.0361ZM42.5268 29.1042C42.8023 29.1159 43.2353 29.1159 43.4843 29.1042C43.7332 29.0925 43.513 29.0819 42.9843 29.0819C42.4555 29.0819 42.247 29.0914 42.5226 29.1042M26.9502 32.7861C26.897 33.0531 26.9502 33.1053 27.0066 32.8425C27.0306 32.768 27.0358 32.6887 27.0215 32.6117C27.0055 32.5957 26.9736 32.6744 26.9513 32.7872M45.0034 33.2585C40.9928 35.318 33.1204 35.4148 28.9279 33.4553C28.7205 33.3514 28.5073 33.2594 28.2896 33.1797C28.2502 33.234 27.4385 36.1957 27.1098 37.4638C26.647 39.2659 25.58 43.2521 24.8598 45.8627C23.6609 50.2074 23.446 51.3755 23.6438 52.4489C23.6959 52.9144 23.9168 53.3448 24.2648 53.6585C24.6128 53.9722 25.0636 54.1474 25.5321 54.151C27.0305 54.2794 28.5364 54.2976 30.0375 54.2053C30.0162 54.1563 29.8832 53.8563 29.7417 53.5393C29.547 53.1031 28.8641 51.1255 28.6779 50.4542C28.3402 50.3642 27.9905 50.3284 27.6417 50.3478C26.6251 50.3206 25.6151 50.1753 24.6321 49.9148C24.497 49.8021 24.497 49.7989 25.0183 47.9999C25.2811 47.0936 25.7417 45.4468 26.0406 44.3297C26.3396 43.2127 26.8066 41.5436 27.0779 40.6063C27.847 37.9606 28.3662 35.9648 28.6736 34.4617C28.7258 34.2127 28.6843 34.217 29.1311 34.4138C32.4111 35.5475 35.8979 35.957 39.3513 35.6138C41.2468 35.3957 43.1004 34.9023 44.8534 34.1489C44.8992 34.1287 44.9885 34.3787 45.1013 34.8425C45.1981 35.2414 45.3758 35.9063 45.496 36.3234C46.6598 40.3457 49.113 49.7989 49.0226 49.8936C47.6943 50.2637 46.3162 50.423 44.9385 50.3659C44.8397 50.569 44.7658 50.7834 44.7183 51.0042C44.4406 51.9276 44.106 52.8329 43.7162 53.7148C43.4353 54.3074 43.3704 54.2734 44.7013 54.2329C49.4183 54.0904 49.7768 53.9414 49.9747 52.0446C50.0811 51.0127 49.0375 46.3457 47.0885 39.1563C46.7587 37.9393 46.0109 35.0755 45.7055 33.8787C45.6451 33.5887 45.5612 33.304 45.4545 33.0276C45.4343 33.0276 45.2279 33.1276 44.996 33.2468M26.6481 33.8585C26.6137 33.9539 26.5985 34.0551 26.6034 34.1563C26.6194 34.1712 26.663 34.0617 26.7002 33.9117C26.7325 33.8157 26.7476 33.715 26.7449 33.6138C26.7311 33.6 26.6875 33.7106 26.6481 33.8585ZM26.4353 34.6031C26.4116 34.6715 26.4001 34.7436 26.4013 34.8159C26.4013 34.8744 26.4321 34.8383 26.463 34.734C26.5236 34.5319 26.5023 34.4308 26.4353 34.6053M26.2992 35.1478C26.2751 35.2224 26.27 35.3017 26.2843 35.3787C26.3002 35.3946 26.3321 35.3159 26.3545 35.2031C26.4077 34.9361 26.3545 34.884 26.2981 35.1468M25.6002 37.8765C25.5765 37.945 25.565 38.017 25.5662 38.0893C25.5662 38.1478 25.597 38.1117 25.6279 38.0074C25.6885 37.8053 25.6672 37.7042 25.6002 37.8787M25.4641 38.4212C25.4395 38.4968 25.435 38.5775 25.4513 38.6553C25.4694 38.6734 25.5034 38.5968 25.5279 38.4861C25.5525 38.4106 25.5568 38.3298 25.5406 38.2521C25.5226 38.234 25.4885 38.3095 25.4641 38.4212ZM25.3034 39.1276C25.2668 39.2427 25.2499 39.3633 25.2534 39.484C25.2694 39.5 25.3162 39.3638 25.3598 39.1819C25.3947 39.0663 25.4116 38.9461 25.4098 38.8255C25.396 38.8117 25.3481 38.9468 25.3034 39.1276ZM25.1438 39.7372C25.1183 39.8436 25.0566 40.0723 25.0077 40.2457C24.9654 40.3815 24.9369 40.5212 24.9226 40.6627C24.9226 40.718 24.997 40.518 25.0821 40.218C25.1479 40.0202 25.1921 39.8158 25.2141 39.6085C25.2013 39.5734 25.1694 39.6308 25.1438 39.7372ZM24.5396 42.0531C24.4608 42.328 24.4014 42.6081 24.3619 42.8914C24.4592 42.6359 24.536 42.373 24.5917 42.1053C24.6704 41.8304 24.7298 41.5502 24.7694 41.267C24.6719 41.5225 24.5951 41.7854 24.5396 42.0531ZM49.247 42.3042C49.2638 42.4347 49.2919 42.5636 49.3311 42.6893C49.38 42.8659 49.4204 42.9521 49.4215 42.8819C49.4215 42.7457 49.2555 42.1957 49.247 42.3042ZM45.9875 44.9351C45.9875 45.1478 46.0002 45.2255 46.014 45.1106C46.0286 44.9826 46.0286 44.8535 46.014 44.7255C45.9992 44.6287 45.9875 44.7255 45.9875 44.9382M19.7109 44.7595C19.8388 44.7741 19.968 44.7741 20.096 44.7595C20.1928 44.7446 20.096 44.7329 19.8832 44.734C19.6704 44.7351 19.5928 44.7468 19.7077 44.7606M41.7545 45.2276C41.7545 45.4925 41.7662 45.601 41.78 45.468C41.7938 45.308 41.7938 45.1472 41.78 44.9872C41.7662 44.8553 41.7545 44.9638 41.7545 45.2276ZM27.5662 45.2914C27.5662 45.4148 27.58 45.4659 27.596 45.4042C27.6121 45.3303 27.6121 45.2537 27.596 45.1797C27.58 45.118 27.5662 45.167 27.5662 45.2914ZM33.1492 45.2925C33.1492 45.4159 33.163 45.467 33.1789 45.4053C33.1949 45.3313 33.1949 45.2547 33.1789 45.1808C33.163 45.1191 33.1492 45.168 33.1492 45.2925ZM21.3268 45.3904L21.6077 45.7095C21.6385 45.7446 21.6343 45.7159 21.597 45.6457C21.5183 45.5271 21.4238 45.4197 21.3162 45.3265L21.1034 45.134L21.3268 45.3904ZM31.9321 45.518C31.9321 45.6595 31.946 45.7095 31.9609 45.6244C31.9767 45.5397 31.9767 45.4527 31.9609 45.368C31.9449 45.3063 31.9321 45.368 31.9332 45.5127M40.4109 45.8319C40.4109 46.151 40.4215 46.2872 40.4353 46.1382C40.4487 45.9459 40.4487 45.7529 40.4353 45.5606C40.4226 45.3914 40.4109 45.5148 40.4109 45.8319ZM33.2183 46.1191C33.2183 46.2776 33.2311 46.3425 33.246 46.2638C33.2612 46.1682 33.2612 46.071 33.246 45.9755C33.2311 45.8957 33.2183 45.9595 33.2183 46.1191ZM41.6875 46.217C41.6875 46.3585 41.7013 46.4085 41.7162 46.3234C41.7319 46.2387 41.7319 46.1517 41.7162 46.067C41.7002 46.0053 41.6875 46.067 41.6885 46.2117M32.0013 46.3404C32.0013 46.517 32.0141 46.5819 32.0289 46.484C32.0438 46.3781 32.0438 46.2707 32.0289 46.1648C32.0141 46.0861 32.0013 46.1648 32.0023 46.3425M18.346 46.5851L18.0928 46.8574L18.3651 46.6042C18.6183 46.368 18.6672 46.3127 18.6183 46.3127C18.5215 46.3973 18.4305 46.4882 18.346 46.5851ZM20.6587 46.7297C20.6587 46.8468 20.68 46.9287 20.7066 46.9127C20.738 46.8571 20.7545 46.7942 20.7545 46.7303C20.7545 46.6663 20.738 46.6035 20.7066 46.5478C20.68 46.5319 20.6587 46.6127 20.6587 46.7297ZM33.2832 46.9553C33.2832 47.0787 33.297 47.1297 33.313 47.068C33.3289 46.9941 33.3289 46.9175 33.313 46.8436C33.297 46.7819 33.2832 46.8319 33.2832 46.9553ZM41.6289 47.0531C41.6289 47.2297 41.6417 47.2946 41.6566 47.1968C41.6714 47.0909 41.6714 46.9835 41.6566 46.8776C41.6417 46.7989 41.6289 46.8776 41.63 47.0553M21.8428 47.0021C21.8167 47.1511 21.7664 47.2948 21.6938 47.4276L21.5449 47.7212L21.6864 47.6148C21.8194 47.5148 21.9577 46.9936 21.8747 46.9095C21.8566 46.8914 21.8428 46.9351 21.8428 47.0053M32.0619 47.1234C32.0619 47.2648 32.0758 47.3148 32.0906 47.2297C32.1065 47.145 32.1065 47.058 32.0906 46.9734C32.0747 46.9117 32.0619 46.9734 32.063 47.118M40.3428 47.1819C40.3428 47.3585 40.3555 47.4234 40.3704 47.3255C40.3853 47.2196 40.3853 47.1122 40.3704 47.0063C40.3555 46.9276 40.3428 47.0063 40.3438 47.184M33.347 47.8223C33.347 47.9638 33.3609 48.0138 33.3758 47.9287C33.3916 47.844 33.3916 47.757 33.3758 47.6723C33.3598 47.6106 33.347 47.6723 33.3481 47.818M41.5609 47.7861C41.5609 47.9095 41.5736 47.9606 41.5906 47.8989C41.6068 47.825 41.6068 47.7484 41.5906 47.6744C41.5747 47.6127 41.5609 47.6627 41.5609 47.7861ZM23.1013 47.8234C23.0782 47.887 23.0727 47.9558 23.0853 48.0223C23.1002 48.0372 23.1321 47.9723 23.1555 47.8787C23.1783 47.815 23.1835 47.7462 23.1704 47.6797C23.1555 47.6648 23.1247 47.7297 23.1013 47.8234ZM21.2343 47.9553C21.1194 48.0531 21.0949 48.0925 21.1758 48.0531C21.2928 47.9946 21.514 47.7829 21.4513 47.7893C21.3758 47.8384 21.3045 47.8939 21.2385 47.9553M40.2811 48.268C40.2811 48.4095 40.2949 48.4595 40.3098 48.3744C40.3255 48.2896 40.3255 48.2027 40.3098 48.118C40.2938 48.0563 40.2811 48.118 40.2821 48.2627M20.1758 48.4234C20.0523 48.4914 19.98 48.5468 20.0151 48.5468C20.1169 48.5195 20.2144 48.4779 20.3045 48.4234C20.4279 48.3563 20.5002 48.3 20.4651 48.3C20.3637 48.3273 20.2655 48.3689 20.1758 48.4234ZM33.4119 48.584C33.4119 48.7255 33.4258 48.7755 33.4406 48.6904C33.4564 48.6056 33.4564 48.5188 33.4406 48.434C33.4247 48.3723 33.4119 48.434 33.413 48.5797M19.9353 48.8042C19.9353 48.9276 19.9492 48.9787 19.9651 48.9159C19.9813 48.842 19.9813 48.7654 19.9651 48.6914C19.9492 48.6297 19.9353 48.6797 19.9353 48.8042ZM32.2566 48.9968C32.2566 49.1202 32.2704 49.1712 32.2864 49.1095C32.3026 49.0356 32.3026 48.959 32.2864 48.8851C32.2704 48.8234 32.2566 48.8734 32.2566 48.9968ZM40.214 49.1265C40.214 49.25 40.2279 49.301 40.2438 49.2393C40.26 49.1654 40.26 49.0888 40.2438 49.0148C40.2279 48.9531 40.214 49.0031 40.214 49.1265ZM33.4758 49.2563C33.4758 49.3797 33.4885 49.4308 33.5055 49.3691C33.5217 49.2952 33.5217 49.2186 33.5055 49.1446C33.4896 49.0829 33.4758 49.1329 33.4758 49.2563ZM32.3204 49.6425C32.3204 49.7659 32.3332 49.817 32.3502 49.7553C32.3664 49.6813 32.3664 49.6047 32.3502 49.5308C32.3343 49.4691 32.3204 49.5191 32.3204 49.6425ZM40.1523 49.8999C40.1523 50.0585 40.1651 50.1234 40.18 50.0446C40.1952 49.9491 40.1952 49.8519 40.18 49.7563C40.1651 49.6765 40.1523 49.7404 40.1523 49.8999ZM33.5417 49.9978C33.5417 50.1393 33.5555 50.1893 33.5704 50.1042C33.5862 50.0194 33.5862 49.9325 33.5704 49.8478C33.5545 49.7861 33.5417 49.8478 33.5428 49.9925M20.3513 50.1414C20.4184 50.2585 20.5011 50.3658 20.597 50.4606C20.6694 50.5234 20.6438 50.4606 20.5364 50.3117C20.2789 49.9542 20.2077 49.8861 20.3513 50.1393M32.3853 50.1989C32.3768 50.3436 32.3768 50.3436 31.1534 50.3436C30.0172 50.3436 29.9321 50.351 29.9651 50.4563C29.9843 50.518 30.1002 50.901 30.2236 51.3074C30.4364 52.0276 30.7726 52.9531 31.1258 53.8265L31.3002 54.2595H32.063C32.3133 54.274 32.5645 54.269 32.814 54.2446C32.814 54.1574 32.4258 50.3085 32.4055 50.2021C32.3853 50.0957 32.3811 50.0957 32.3736 50.218M41.1364 51.967C41.0375 53.0085 40.9406 53.9542 40.9236 54.0691L40.8885 54.2819H42.1885L42.3162 54.0691C42.7631 53.1034 43.1285 52.1021 43.4087 51.0755C43.4789 50.8074 43.5502 50.5436 43.5672 50.4914C43.5938 50.4074 43.4502 50.3978 42.48 50.4138L41.3619 50.4329L41.3417 50.2531C41.2448 50.8205 41.1777 51.3926 41.1406 51.967M33.6034 50.684C33.6034 50.8074 33.6162 50.8585 33.6332 50.7968C33.6494 50.7228 33.6494 50.6462 33.6332 50.5723C33.6172 50.5106 33.6034 50.5606 33.6034 50.684ZM40.0864 50.717C40.0864 50.8585 40.1002 50.9085 40.1162 50.8234C40.132 50.7386 40.132 50.6517 40.1162 50.567C40.1002 50.5053 40.0875 50.567 40.0885 50.7117M21.5481 51.3042C21.6034 51.3936 21.9736 51.5234 21.9736 51.4542C21.9736 51.4244 21.9226 51.3861 21.8609 51.3691C21.7992 51.3521 21.6928 51.3138 21.6258 51.2861C21.5587 51.2585 21.5194 51.2585 21.5449 51.3042M33.6726 51.517C33.6726 51.6755 33.6853 51.7404 33.7002 51.6617C33.7154 51.5661 33.7154 51.4689 33.7002 51.3734C33.6853 51.2936 33.6726 51.3574 33.6726 51.517ZM40.0226 51.5819C40.0226 51.7053 40.0353 51.7563 40.0523 51.6946C40.0683 51.6207 40.0683 51.5441 40.0523 51.4702C40.0364 51.4085 40.0226 51.4585 40.0226 51.5819ZM39.9587 52.4808C39.9587 52.6042 39.9726 52.6553 39.9885 52.5936C40.0047 52.5196 40.0047 52.443 39.9885 52.3691C39.9726 52.3074 39.9587 52.3574 39.9587 52.4808ZM22.1811 52.5882C22.2133 52.5999 22.2427 52.6186 22.2669 52.6428C22.2912 52.6671 22.3098 52.6964 22.3215 52.7287C22.3449 52.8074 22.3502 52.8021 22.3406 52.7095C22.3371 52.6735 22.3212 52.6397 22.2955 52.6142C22.27 52.5886 22.2363 52.5726 22.2002 52.5691C22.1077 52.5595 22.1023 52.5691 22.1811 52.5882ZM36.7417 54.618C36.7566 54.6265 36.8843 54.7351 37.0247 54.8585L37.2811 55.0829L37.0598 54.8425C36.9821 54.7445 36.886 54.6628 36.7768 54.6021C36.7428 54.6021 36.7268 54.6095 36.7417 54.618ZM36.4428 55.0031L36.2545 55.2159L36.4672 55.0276C36.5447 54.9636 36.616 54.8923 36.68 54.8148C36.68 54.7648 36.6268 54.8085 36.4513 55.0031M35.3492 55.418C35.455 55.4329 35.5625 55.4329 35.6683 55.418C35.747 55.4031 35.6683 55.3904 35.4906 55.3914C35.313 55.3925 35.2492 55.4042 35.347 55.4191M38.0747 55.4191C38.2027 55.4336 38.3318 55.4336 38.4598 55.4191C38.5566 55.4042 38.4598 55.3925 38.247 55.3936C38.0343 55.3946 37.9566 55.4063 38.0715 55.4202" fill="#DDDDDD"/>
</g>
<path d="M84.8643 34.2539C85.1468 34.3177 85.4294 34.3678 85.7119 34.4043C85.9945 34.4408 86.2793 34.459 86.5664 34.459C86.8672 34.459 87.1452 34.4316 87.4004 34.377C87.6602 34.3177 87.8835 34.222 88.0703 34.0898C88.2617 33.9531 88.4121 33.7731 88.5215 33.5498C88.6309 33.3265 88.6855 33.0485 88.6855 32.7158C88.6855 32.4469 88.6491 32.2008 88.5762 31.9775C88.5033 31.7542 88.3939 31.5628 88.248 31.4033C88.1068 31.2438 87.9313 31.1208 87.7217 31.0342C87.512 30.943 87.2682 30.8975 86.9902 30.8975C86.7305 30.8975 86.4958 30.9453 86.2861 31.041C86.0811 31.1367 85.8988 31.2666 85.7393 31.4307C85.5843 31.5902 85.4499 31.777 85.3359 31.9912C85.2266 32.2054 85.1354 32.4287 85.0625 32.6611C84.9896 32.8936 84.9372 33.1283 84.9053 33.3652C84.8734 33.6022 84.8574 33.8255 84.8574 34.0352C84.8574 34.0716 84.8574 34.1081 84.8574 34.1445C84.8574 34.181 84.8597 34.2174 84.8643 34.2539ZM90.5586 32.6953C90.5586 33.0189 90.5062 33.3083 90.4014 33.5635C90.2965 33.8141 90.153 34.0352 89.9707 34.2266C89.793 34.418 89.5856 34.5798 89.3486 34.7119C89.1117 34.8441 88.8587 34.9535 88.5898 35.04C88.321 35.1221 88.043 35.1813 87.7559 35.2178C87.4733 35.2542 87.1976 35.2725 86.9287 35.2725C86.5869 35.2725 86.2497 35.2497 85.917 35.2041C85.5843 35.154 85.2562 35.0765 84.9326 34.9717C84.9827 35.2725 85.0625 35.5596 85.1719 35.833C85.2812 36.1019 85.4271 36.3389 85.6094 36.5439C85.7917 36.7445 86.015 36.904 86.2793 37.0225C86.5482 37.141 86.8649 37.2002 87.2295 37.2002C87.471 37.2002 87.7012 37.1637 87.9199 37.0908C88.1387 37.0179 88.3392 36.9154 88.5215 36.7832C88.7038 36.651 88.8633 36.4938 89 36.3115C89.1413 36.1292 89.2552 35.9264 89.3418 35.7031L90.3398 36.0723C90.1895 36.4323 89.9821 36.7445 89.7178 37.0088C89.458 37.2686 89.1618 37.485 88.8291 37.6582C88.501 37.8268 88.1501 37.9521 87.7764 38.0342C87.4072 38.1162 87.0404 38.1572 86.6758 38.1572C86.0742 38.1572 85.5182 38.057 85.0078 37.8564C84.4974 37.6514 84.0576 37.3665 83.6885 37.002C83.3193 36.6374 83.0299 36.2021 82.8203 35.6963C82.6107 35.1904 82.5059 34.6367 82.5059 34.0352C82.5059 33.4336 82.6107 32.8799 82.8203 32.374C83.0299 31.8682 83.3193 31.4329 83.6885 31.0684C84.0576 30.7038 84.4974 30.4212 85.0078 30.2207C85.5182 30.0156 86.0742 29.9131 86.6758 29.9131C86.9674 29.9131 87.266 29.9336 87.5713 29.9746C87.8766 30.0156 88.1729 30.0817 88.46 30.1729C88.7471 30.2594 89.0182 30.3734 89.2734 30.5146C89.5286 30.6559 89.7497 30.8314 89.9365 31.041C90.1279 31.2461 90.2783 31.4854 90.3877 31.7588C90.5016 32.0322 90.5586 32.3444 90.5586 32.6953ZM98.1875 38H91.502V37.084L95.6377 31.0205H91.502V30.1045H98.1875V31.0205L94.0518 37.084H98.1875V38ZM101.325 34.2539C101.608 34.3177 101.89 34.3678 102.173 34.4043C102.455 34.4408 102.74 34.459 103.027 34.459C103.328 34.459 103.606 34.4316 103.861 34.377C104.121 34.3177 104.344 34.222 104.531 34.0898C104.723 33.9531 104.873 33.7731 104.982 33.5498C105.092 33.3265 105.146 33.0485 105.146 32.7158C105.146 32.4469 105.11 32.2008 105.037 31.9775C104.964 31.7542 104.855 31.5628 104.709 31.4033C104.568 31.2438 104.392 31.1208 104.183 31.0342C103.973 30.943 103.729 30.8975 103.451 30.8975C103.191 30.8975 102.957 30.9453 102.747 31.041C102.542 31.1367 102.36 31.2666 102.2 31.4307C102.045 31.5902 101.911 31.777 101.797 31.9912C101.688 32.2054 101.596 32.4287 101.523 32.6611C101.451 32.8936 101.398 33.1283 101.366 33.3652C101.334 33.6022 101.318 33.8255 101.318 34.0352C101.318 34.0716 101.318 34.1081 101.318 34.1445C101.318 34.181 101.321 34.2174 101.325 34.2539ZM107.02 32.6953C107.02 33.0189 106.967 33.3083 106.862 33.5635C106.757 33.8141 106.614 34.0352 106.432 34.2266C106.254 34.418 106.047 34.5798 105.81 34.7119C105.573 34.8441 105.32 34.9535 105.051 35.04C104.782 35.1221 104.504 35.1813 104.217 35.2178C103.934 35.2542 103.659 35.2725 103.39 35.2725C103.048 35.2725 102.711 35.2497 102.378 35.2041C102.045 35.154 101.717 35.0765 101.394 34.9717C101.444 35.2725 101.523 35.5596 101.633 35.833C101.742 36.1019 101.888 36.3389 102.07 36.5439C102.253 36.7445 102.476 36.904 102.74 37.0225C103.009 37.141 103.326 37.2002 103.69 37.2002C103.932 37.2002 104.162 37.1637 104.381 37.0908C104.6 37.0179 104.8 36.9154 104.982 36.7832C105.165 36.651 105.324 36.4938 105.461 36.3115C105.602 36.1292 105.716 35.9264 105.803 35.7031L106.801 36.0723C106.65 36.4323 106.443 36.7445 106.179 37.0088C105.919 37.2686 105.623 37.485 105.29 37.6582C104.962 37.8268 104.611 37.9521 104.237 38.0342C103.868 38.1162 103.501 38.1572 103.137 38.1572C102.535 38.1572 101.979 38.057 101.469 37.8564C100.958 37.6514 100.519 37.3665 100.149 37.002C99.7803 36.6374 99.4909 36.2021 99.2812 35.6963C99.0716 35.1904 98.9668 34.6367 98.9668 34.0352C98.9668 33.4336 99.0716 32.8799 99.2812 32.374C99.4909 31.8682 99.7803 31.4329 100.149 31.0684C100.519 30.7038 100.958 30.4212 101.469 30.2207C101.979 30.0156 102.535 29.9131 103.137 29.9131C103.428 29.9131 103.727 29.9336 104.032 29.9746C104.338 30.0156 104.634 30.0817 104.921 30.1729C105.208 30.2594 105.479 30.3734 105.734 30.5146C105.99 30.6559 106.211 30.8314 106.397 31.041C106.589 31.2461 106.739 31.4854 106.849 31.7588C106.963 32.0322 107.02 32.3444 107.02 32.6953ZM116.535 33.4746C116.535 34.0078 116.469 34.5638 116.337 35.1426C116.209 35.7214 116.029 36.2887 115.797 36.8447C115.564 37.4007 115.286 37.9225 114.963 38.4102C114.639 38.9023 114.284 39.3262 113.896 39.6816L113.028 39.21C113.151 38.9821 113.268 38.7269 113.377 38.4443C113.486 38.1618 113.584 37.8633 113.671 37.5488C113.762 37.2298 113.842 36.9017 113.91 36.5645C113.983 36.2272 114.042 35.8945 114.088 35.5664C114.138 35.2337 114.174 34.9124 114.197 34.6025C114.225 34.2881 114.238 33.9964 114.238 33.7275C114.238 33.5498 114.231 33.3607 114.218 33.1602C114.204 32.9551 114.174 32.7523 114.129 32.5518C114.088 32.3467 114.031 32.1507 113.958 31.9639C113.885 31.777 113.787 31.613 113.664 31.4717C113.546 31.3304 113.4 31.2165 113.227 31.1299C113.058 31.0433 112.857 31 112.625 31C112.397 31 112.194 31.0524 112.017 31.1572C111.839 31.2575 111.682 31.3919 111.545 31.5605C111.408 31.7246 111.29 31.9137 111.189 32.1279C111.094 32.3421 111.014 32.5632 110.95 32.791C110.891 33.0143 110.848 33.2354 110.82 33.4541C110.793 33.6729 110.779 33.8688 110.779 34.042V38H108.462V30.1045H109.351L110.41 31.9434C110.538 31.638 110.697 31.36 110.889 31.1094C111.08 30.8587 111.297 30.6445 111.538 30.4668C111.78 30.2891 112.046 30.1523 112.338 30.0566C112.634 29.9609 112.953 29.9131 113.295 29.9131C113.842 29.9131 114.318 30.002 114.724 30.1797C115.129 30.3574 115.466 30.6058 115.735 30.9248C116.004 31.2393 116.205 31.6152 116.337 32.0527C116.469 32.4857 116.535 32.9596 116.535 33.4746ZM120.486 28.1973C120.486 28.3704 120.452 28.5345 120.384 28.6895C120.32 28.8444 120.231 28.9788 120.117 29.0928C120.003 29.2067 119.869 29.2979 119.714 29.3662C119.559 29.43 119.395 29.4619 119.222 29.4619C119.049 29.4619 118.884 29.43 118.729 29.3662C118.579 29.2979 118.447 29.2067 118.333 29.0928C118.219 28.9788 118.128 28.8444 118.06 28.6895C117.996 28.5345 117.964 28.3704 117.964 28.1973C117.964 28.0241 117.996 27.8623 118.06 27.7119C118.128 27.557 118.219 27.4225 118.333 27.3086C118.447 27.1947 118.579 27.1058 118.729 27.042C118.884 26.9736 119.049 26.9395 119.222 26.9395C119.395 26.9395 119.559 26.9736 119.714 27.042C119.869 27.1058 120.003 27.1947 120.117 27.3086C120.231 27.4225 120.32 27.557 120.384 27.7119C120.452 27.8623 120.486 28.0241 120.486 28.1973ZM120.384 38H118.066V30.1113H120.384V38ZM125.299 38H122.981V31.0205H121.546V30.1045H122.981V27.1992H125.299V30.1045H127.691V31.0205H125.299V38Z" fill="#594470"/>
</g>
</svg>
